<svg width="573" height="257" viewBox="0 0 573 257" fill="none" xmlns="http://www.w3.org/2000/svg">
<path d="M251.826 126.133C251.826 126.133 248.826 125.036 224.367 135.422C200.534 145.54 189.944 186.86 189.944 186.86C189.944 186.86 182.254 209.557 172 209.557C161.746 209.557 147.753 158.511 147.753 158.511C147.753 158.511 140.801 139.731 117.361 139.731V112.468C140.79 112.468 147.753 93.6875 147.753 93.6875C147.753 93.6875 161.746 42.6412 172 42.6412C182.254 42.6412 189.944 65.3384 189.944 65.3384C189.944 65.3384 200.523 106.659 224.367 116.776C248.826 127.163 251.826 126.066 251.826 126.066V126.133Z" fill="#E5232C"/>
<path d="M202.773 125.999L202.594 126.178C166.716 126.178 147.305 158.466 147.305 158.466C136.223 176.239 118.838 239.899 104.006 239.899C89.1735 239.899 76.6359 190.934 76.6359 190.934C55.031 119.183 5.23892 126.178 5.23892 126.178L5.41802 125.999V126.178L5.23892 125.999C5.23892 125.999 55.0422 132.994 76.6359 61.2422C76.6359 61.2422 89.1735 12.2775 104.006 12.2775C118.838 12.2775 136.223 75.9372 147.305 93.7099C147.305 93.7099 166.716 125.999 202.594 125.999L202.773 126.178V125.999Z" fill="#5A52A2"/>
<path d="M202.773 126.189C166.895 126.189 147.484 158.478 147.484 158.478C147.484 158.478 140.533 139.698 117.092 139.698C87.4384 139.698 76.815 190.945 76.815 190.945C55.2101 119.194 5.41802 126.189 5.41802 126.189L5.23892 126.01C5.23892 126.01 55.0422 133.005 76.6359 61.2534C76.6359 61.2534 87.2593 112.501 116.913 112.501C140.343 112.501 147.305 93.7211 147.305 93.7211C147.305 93.7211 166.716 126.01 202.594 126.01L202.773 126.189Z" fill="#D288AA"/>
<path d="M281.178 206.58C286.103 210.151 288.935 217.258 285.42 226.323C281.972 235.232 274.685 237.403 266.088 237.369C257.457 237.336 248.826 237.146 240.207 237.437C235.035 237.604 232.919 235.545 232.941 230.486C233.02 215.097 233.02 199.697 232.908 184.309C232.863 178.97 234.777 176.474 240.52 176.72C248.826 177.079 257.155 176.821 265.472 176.799C272.58 176.776 280.304 177.896 282.319 185.226C283.943 191.147 281.793 198.097 281.166 206.569L281.178 206.58ZM257.334 226.301C262.461 222.171 265.606 219.63 268.763 217.09C265.371 215.221 262.17 212.59 258.543 211.718C254.972 210.856 249.554 210.464 250.662 216.855C251.143 219.585 254.099 221.891 257.334 226.301ZM257.087 201.052C260.547 198.892 263.032 197.336 265.506 195.78C262.976 194.247 260.491 191.628 257.893 191.505C255.498 191.382 252.968 193.945 250.505 195.321C252.442 197.011 254.378 198.701 257.087 201.063V201.052Z" fill="#D088AA"/>
<path d="M287.861 155.277C287.861 140.996 287.861 127.039 287.861 112.882C297.656 112.882 306.622 112.882 316.227 112.882C316.619 115.187 317.033 117.672 317.492 120.38C328.563 108.595 340.384 105.82 352.138 112.009C361.642 117.012 365.918 128.584 362.806 140.906C360.411 150.408 350.761 157.638 339.88 157.537C331.541 157.459 323.313 155.221 319.563 147.286C316.439 140.66 315.622 132.949 313.641 125.148C307.204 125.663 303.409 128.841 303.477 135.993C303.499 138.455 303.443 140.917 303.432 143.368C303.38 152.404 298.185 156.373 287.849 155.277H287.861ZM347.302 133.363C347.481 127.342 346.272 121.332 339.287 121.41C333.108 121.477 331.473 126.95 331.462 132.703C331.451 138.623 332.38 144.7 339.209 144.991C346.283 145.282 347.492 139.227 347.313 133.374L347.302 133.363Z" fill="#D088AA"/>
<path d="M281.379 141.69C281.379 147.028 281.379 150.901 281.379 156.015C266.614 156.015 252.252 156.228 237.912 155.736C236.21 155.68 233.277 151.818 233.221 149.658C232.83 133.676 233.031 117.672 233.009 101.679C233.009 96.8884 235.471 95.3999 240.016 95.4782C251.714 95.6685 263.412 95.7357 275.11 95.4782C280.719 95.3551 281.692 98.1643 281.748 102.898C281.804 107.957 280.036 110.218 274.774 109.972C268.942 109.692 263.043 109.535 257.244 110.106C254.905 110.341 252.755 112.635 250.528 113.99C252.878 115.232 255.128 117.191 257.614 117.538C261.845 118.131 266.222 117.918 270.521 117.661C275.58 117.358 277.763 119.306 277.819 124.521C277.886 129.938 276.107 132.535 270.342 132.143C265.438 131.818 260.435 131.651 255.599 132.322C253.707 132.579 252.162 135.321 250.472 136.933C252.196 138.522 253.841 141.376 255.643 141.488C263.871 141.981 272.155 141.701 281.368 141.701L281.379 141.69Z" fill="#D088AA"/>
<path d="M285.991 15.0979C295.439 14.0235 300.928 19.2762 302.458 30.8561C303.544 30.7218 304.685 30.733 305.727 30.4308C321.432 25.9764 329.537 31.841 329.749 47.8902C329.805 52.4901 329.772 57.09 329.761 61.6899C329.746 71.2851 324.41 75.288 313.753 73.6988C313.753 66.7374 313.91 59.5074 313.697 52.2774C313.563 47.7447 315.51 41.3094 307.596 41.5332C299.906 41.7458 302.055 48.1588 301.663 52.6692C301.394 55.7134 301.618 58.8023 301.607 61.8689C301.551 75.8812 301.115 76.2393 286.002 73.71C286.002 54.3815 286.002 34.9188 286.002 15.0979H285.991Z" fill="#D088AA"/>
<path d="M419.046 96.7318C434.002 93.8666 434.64 94.3591 434.696 108.237C434.718 113.027 434.696 117.829 434.696 125.797C442.543 115.31 449.562 108.573 461.54 113.352C460.442 115.087 459.592 116.922 458.293 118.366C451.644 125.752 451.065 133.68 456.558 142.149C459.144 146.155 461.506 150.319 464.025 154.493C448.946 160.917 443.125 150.755 436.498 139.854C435.446 151.248 433.767 160.828 419.046 154.728C419.046 135.59 419.046 116.105 419.046 96.7318Z" fill="#D088AA"/>
<path d="M378.277 57.4817C374.504 70.9679 367.53 76.0379 356.336 76.3401C345.466 76.6199 335.694 70.3524 333.141 60.3692C330.701 50.8001 331.216 41.2758 339.108 33.9563C346.552 27.0509 355.362 26.0995 364.776 29.3452C373.541 32.367 380.314 42.8539 378.545 51.8969C378.187 53.71 374.515 55.9708 372.243 56.1275C364.485 56.6535 356.66 56.3289 347.425 56.3289C351.321 63.6932 354.701 65.2824 360.802 62.3278C365.56 60.0222 371.112 59.3843 378.277 57.4817ZM362.694 44.902C357.175 38.0301 353.28 39.306 347.268 44.902C353.347 44.902 357.265 44.902 362.694 44.902Z" fill="#D088AA"/>
<path d="M327.902 221.264C331.406 226.468 334.966 227.655 340.933 224.633C345.522 222.316 351.142 222.059 357.31 220.66C354.724 233.038 347.739 238.377 336.399 238.869C325.216 239.35 315.04 232.736 312.656 222.406C310.428 212.792 311.055 203.268 319.16 196.127C327.085 189.143 336.276 188.651 345.802 192.4C353.66 195.489 360.343 207.196 358.216 214.941C357.746 216.653 354.444 218.489 352.317 218.679C344.716 219.328 337.059 219.294 329.414 219.552C329.212 219.552 329.022 219.977 327.902 221.242V221.264ZM328.921 204.42C329.078 205.349 329.223 206.278 329.38 207.207H341.022C341 206.278 340.966 205.349 340.944 204.42C336.936 204.42 332.929 204.42 328.921 204.42Z" fill="#D088AA"/>
<path d="M541.153 218.88C545.653 226.424 549.179 227.711 555.202 224.734C559.881 222.428 565.501 222.003 571.546 220.537C569.508 232.758 562.467 238.287 551.049 238.88C539.888 239.462 529.657 232.926 527.16 222.618C524.843 213.027 525.425 203.491 533.451 196.295C541.31 189.244 550.478 188.662 560.049 192.356C567.952 195.411 574.669 206.793 572.631 214.762C572.172 216.575 568.4 218.545 566.038 218.701C558.325 219.194 550.568 218.892 541.153 218.892V218.88ZM543.302 204.185C543.493 205.528 543.672 206.86 543.862 208.203C547.735 208.024 551.609 207.834 555.471 207.655C555.392 206.301 555.325 204.946 555.247 203.592C551.262 203.794 547.276 203.995 543.302 204.185Z" fill="#D088AA"/>
<path d="M489.984 121.634C482.249 123.514 474.502 125.394 466.241 127.409C466.152 116.295 469.969 112.154 481.018 109.468C494.775 106.133 504.839 112.882 506.507 126.715C507.458 134.56 508.735 142.44 508.779 150.307C508.835 159.272 501.593 155.366 497.07 155.769C492.581 156.172 487.835 155.288 483.592 156.407C475.387 158.567 466.599 155.769 464.025 149.177C460.868 141.074 464.528 134.102 474.144 130.699C479.506 128.808 485.07 127.498 490.544 125.92C490.354 124.488 490.174 123.055 489.984 121.623V121.634ZM491.898 138.5C490.88 137.28 489.861 136.049 488.831 134.829C485.798 137.112 482.753 139.384 479.719 141.667C480.883 142.865 482.797 145.26 483.077 145.07C486.167 143.111 488.988 140.75 491.887 138.5H491.898Z" fill="#D088AA"/>
<path d="M484.443 202.909C476.708 204.79 468.961 206.681 460.7 208.684C460.622 197.571 464.439 193.419 475.488 190.744C489.245 187.409 499.298 194.157 500.977 208.002C501.928 215.847 503.205 223.726 503.249 231.594C503.294 240.559 496.063 236.642 491.54 237.056C487.051 237.459 482.305 236.586 478.051 237.705C469.846 239.865 461.058 237.067 458.483 230.464C455.327 222.361 458.998 215.388 468.603 211.997C473.965 210.106 479.529 208.796 484.992 207.218C484.801 205.786 484.622 204.353 484.432 202.921L484.443 202.909ZM486.391 219.899C485.383 218.645 484.387 217.381 483.38 216.127C480.312 218.354 477.234 220.582 474.167 222.809C475.286 224.051 477.144 226.502 477.402 226.345C480.536 224.42 483.436 222.115 486.391 219.91V219.899Z" fill="#D088AA"/>
<path d="M361.608 236.362C361.608 222.193 361.608 208.461 361.608 194.493C371.739 193.486 381.288 192.098 390.87 191.729C399.367 191.404 404.852 197.045 405.378 206.245C405.848 214.516 405.322 222.842 405.579 231.135C405.781 237.806 401.382 237.257 396.949 237.414C392.236 237.582 389.281 236.575 389.527 230.923C389.829 224.174 390.053 217.347 389.281 210.677C389.001 208.27 385.698 206.211 383.784 203.984C381.713 206.088 378.4 207.901 377.829 210.341C376.821 214.728 377.437 219.496 377.415 224.107C377.359 238.455 377.247 238.556 361.619 236.373L361.608 236.362Z" fill="#D088AA"/>
<path d="M411.524 236.385C411.524 222.238 411.524 208.505 411.524 194.504C421.621 193.497 431.147 192.098 440.718 191.718C449.226 191.382 454.733 197 455.271 206.178C455.752 214.448 455.215 222.775 455.472 231.068C455.685 237.705 451.364 237.269 446.886 237.403C442.229 237.537 439.151 236.653 439.408 230.956C439.711 224.521 440.002 217.974 439.173 211.628C438.815 208.886 435.614 206.513 433.711 203.962C431.595 206.345 428.36 208.449 427.643 211.191C426.58 215.221 427.319 219.731 427.296 224.029C427.251 238.421 427.184 238.477 411.512 236.362L411.524 236.385Z" fill="#D088AA"/>
<path d="M265.203 74.2472C261.778 74.4934 259.673 74.527 257.591 74.818C250.259 75.814 246.822 73.2847 247.337 65.3048C247.897 56.743 247.035 48.0917 247.584 39.5187C248.098 31.5276 246.139 27.0173 237.072 28.5394C235.371 28.8304 233.512 28.2484 231.162 28.0134C231.162 23.559 231.162 19.4739 231.162 14.3145C247.237 14.3145 262.83 14.057 278.39 14.6726C280.136 14.7398 282.89 19.6418 282.946 22.3503C282.991 24.3872 279.163 28.5058 277.573 28.2708C265.819 26.4801 264.442 32.6021 265.058 42.104C265.729 52.4565 265.215 62.8874 265.215 74.2584L265.203 74.2472Z" fill="#D088AA"/>
<path d="M387.467 157.605C375.165 157.593 370.597 152.579 369.769 140.929C369.288 134.213 371.661 126.95 364.743 121.511C363.579 120.604 365.314 115.545 366.265 112.58C366.926 110.487 369.4 108.741 369.534 106.748C369.892 101.186 372.523 99.4402 377.829 99.4066C383.023 99.373 383.907 102.406 386.572 106.167C392.65 114.751 394.922 120.817 386.863 129.826C384.389 132.602 382.396 143.257 392.359 146.424C393.523 146.793 394.62 152.098 393.579 153.609C391.934 155.971 388.441 157.045 387.489 157.616L387.467 157.605Z" fill="#D088AA"/>
<path d="M507.761 177.974C522.783 175.187 523.388 175.646 523.433 189.558C523.466 201.219 523.466 212.881 523.433 224.555C523.399 238.533 522.873 238.936 507.761 236.205C507.761 216.843 507.761 197.347 507.761 177.985V177.974Z" fill="#D088AA"/>
<path d="M398.695 112.904C409.106 111.882 414.33 115.881 414.367 124.902C414.389 131.035 414.389 137.168 414.367 143.301C414.322 157.246 413.785 157.661 398.695 154.919C398.695 141.097 398.695 127.14 398.695 112.904Z" fill="#D088AA"/>
<path d="M293.402 194.281C303.738 193.102 308.932 197.004 308.984 205.987C309.006 212.12 309.006 218.254 308.984 224.387C308.939 238.433 308.548 238.757 293.402 236.295C293.402 222.507 293.402 208.573 293.402 194.281Z" fill="#D088AA"/>
<path d="M398.785 108.819C398.785 103.167 398.785 99.9214 398.785 95.0418C404.079 95.8476 408.837 95.9931 413.024 97.6047C414.076 98.0076 414.221 105.282 413.225 105.696C409.072 107.442 404.314 107.778 398.796 108.819H398.785Z" fill="#D088AA"/>
<path d="M293.458 190.33C293.458 185.103 293.458 181.857 293.458 176.586C298.495 177.302 303.32 177.549 307.775 178.97C308.671 179.261 309.006 185.943 308.145 186.323C303.857 188.192 299.066 188.942 293.458 190.33Z" fill="#D088AA"/>
</svg>
