<svg width="648" height="1117" viewBox="0 0 648 1117"    xmlns="http://www.w3.org/2000/svg">

   <defs>  
        <linearGradient id="logo-gradient" x1="50%" y1="0%" x2="50%" y2="100%" > 
            
            <stop offset="0%" stop-color="#7A5FFF">
                <animate attributeName="stop-color" values="#7A5FFF; #01FF89; #7A5FFF" dur="4s" repeatCount="indefinite"></animate>
            </stop>

            <stop offset="100%" stop-color="#01FF89">
                <animate attributeName="stop-color" values="#01FF89; #7A5FFF; #01FF89" dur="4s" repeatCount="indefinite"></animate>
            </stop>

        </linearGradient> 

    </defs>



<path fill="url('#logo-gradient')"  d="M94.4381 1116.96C86.6173 1101.24 77.2153 1086.07 71.2579 1069.68C55.2492 1025.62 43.518 980.27 42.2898 933.159C41.5981 906.751 42.9815 880.116 45.7485 853.821C48.8824 824.08 53.7387 794.438 59.4279 765.078C66.6699 727.753 77.3 691.445 98.1226 658.908C110.277 639.9 127.359 625.721 145.09 612.87C174.27 591.743 206.203 575.588 241.594 567.03C269.644 560.237 297.328 560.406 322.965 574.444C349.688 589.088 376.553 603.987 401.187 621.781C427.063 640.465 450.639 662.128 470.431 687.971C483.729 705.313 500.232 720.508 516.876 734.842C524.951 741.79 536.301 745.519 546.748 748.993C570.041 756.718 593.757 763.849 609.822 783.874C636.842 817.57 645.327 853.157 623.643 888.787C607.366 915.534 575.433 924.149 547.905 909.109C540.96 905.31 531.501 902.457 528.339 896.455C525.417 890.905 529.779 881.74 530.245 874.128C533.294 824.814 528.424 778.056 498.171 735.591C473.861 701.486 446.87 670.333 414.796 644.009C380.026 615.454 340.625 594.342 297.201 581.674C279.738 576.576 262.191 576.873 244.248 582.126C201.671 594.582 163.047 614.127 128.347 641.806C109.656 656.705 99.9296 677.549 89.4971 697.857C73.4178 729.179 68.5192 763.694 62.5618 797.855C59.6396 814.632 56.2939 831.339 53.9081 848.186C49.8283 876.911 50.1106 905.72 54.6422 934.387C57.6632 953.452 58.9479 973.251 65.2864 991.215C79.474 1031.35 95.271 1071.06 120.202 1106.22C122.573 1109.56 124.225 1113.4 126.216 1117H94.424L94.4381 1116.96Z" />
<path fill="url('#logo-gradient')"  d="M501.347 964.03C486.708 983.363 473.254 1003.77 457.133 1021.79C432.146 1049.71 399.126 1066.82 366.388 1083.95C345.707 1094.77 325.209 1105.93 304.641 1116.94H170.388C139.486 1086.47 114.131 1052.05 99.0685 1011.1C85.7138 974.819 78.4153 937.184 75.1119 898.489C70.7074 846.901 72.952 796.217 88.2407 746.493C98.8426 712.035 118.423 683.424 143.156 657.355C169.809 629.252 204.057 617.982 239.42 607.08C276.618 595.613 310.951 603.507 344.38 619.098C392.999 641.792 433.769 675.191 470.233 714.168C498.256 744.121 513.262 781.248 521.549 819.956C528.184 850.926 529.13 883.562 517.794 914.828C511.893 931.083 506.768 947.62 501.277 964.016H501.333L501.347 964.03ZM91.177 855.657C93.6193 875.851 94.6075 905.296 101.172 933.441C111.124 976.189 128.079 1016.45 154.167 1052.59C167.056 1070.45 182.797 1084.76 201.29 1095.58C225.289 1109.61 252.605 1110.16 278.566 1104.95C303.356 1099.97 327.637 1090.96 351.1 1081.19C384.119 1067.45 416.645 1052.04 443.355 1027.35C470.134 1002.6 494.275 975.13 505.568 939.952C513.107 916.481 516.89 891.499 519.685 866.884C521.605 849.937 522.283 831.508 517.624 815.451C508.236 783.055 494.402 752.227 471.772 726.016C436.225 684.822 395.004 651.875 343.434 632.952C324.602 626.032 305.869 620.891 285.187 621.442C239.716 622.642 201.417 642.682 163.979 665.037C155.226 670.262 148.125 679.046 141.744 687.336C105.534 734.263 93.0546 788.803 91.177 855.685V855.657Z" />
<path fill="url('#logo-gradient')"  d="M417.69 1116.96C415.163 1101.9 412.551 1086.86 410.25 1071.77C409.968 1069.92 410.787 1067.02 412.142 1065.95C427.275 1054.09 442.606 1042.48 458.163 1030.59C455.905 1042.69 453.335 1054.93 451.359 1067.28C448.719 1083.8 446.545 1100.39 444.173 1116.94H417.676L417.69 1116.96Z" />
<path fill="url('#logo-gradient')"  d="M594.322 1116.96C593.715 1105.59 592.797 1094.22 592.586 1082.84C592.331 1068.86 597.682 1057.11 608.383 1048C623.078 1035.5 637.873 1023.1 654.037 1011.38C626.353 1041.48 617.615 1077.78 617.276 1116.94H594.308L594.322 1116.96Z" />
<path fill="url('#logo-gradient')"  d="M50.28 1116.96C49.1224 1111.27 48.5436 1105.36 46.6943 1099.9C31.3632 1054.68 23.0624 1008.06 23.0765 960.513C23.0765 919.771 25.6317 878.944 34.6384 838.866C33.3678 847.932 31.4056 856.97 30.982 866.079C29.9656 888.364 29.8668 910.691 29.0339 932.989C27.0716 985.283 40.8216 1034.94 54.741 1084.48C57.875 1095.66 63.4936 1106.14 67.9545 1116.94H50.2941L50.28 1116.96Z" />
<path fill="url('#logo-gradient')"  d="M30.8409 1116.96C21.7919 1088.25 20.1402 1058.56 18.6861 1032.87C24.2059 1056.11 30.6432 1083.06 37.01 1110.04C37.5465 1112.28 37.6171 1114.64 37.8994 1116.96H30.8268H30.8409Z" />
<path fill="url('#logo-gradient')"  d="M375.296 1116.96C374.223 1105.05 373.489 1093.22 383.879 1081.34C385.305 1094.72 386.477 1105.84 387.663 1116.96H375.296Z" />
<path fill="url('#logo-gradient')"  d="M339.961 1116.96C345.269 1103.08 357.805 1097.44 370.934 1088.91C365.81 1099.7 361.716 1108.33 357.622 1116.96H339.961Z" />
<path fill="url('#logo-gradient')"  d="M403.559 1116.96C401.949 1106.27 400.199 1095.59 398.787 1084.87C398.335 1081.41 398.717 1077.84 398.717 1074.31C399.987 1074.2 401.272 1074.08 402.542 1073.97C405.831 1088.3 409.107 1102.62 412.396 1116.96H403.559Z" />
<path fill="url('#logo-gradient')"  d="M633.186 1116.96C636.278 1096.37 639.285 1075.76 642.518 1055.19C643.096 1051.49 644.649 1047.94 646.499 1044.44C639.892 1068.28 640.668 1092.67 640.245 1116.96H633.172H633.186Z" />
<path fill="url('#logo-gradient')"  d="M18.4885 1116.96C17.1897 1106.85 15.8909 1096.75 14.5781 1086.64C15.2416 1086.55 15.9051 1086.47 16.5686 1086.37C17.7967 1096.57 19.0249 1106.76 20.2531 1116.96H18.4885Z" />
<path fill="url('#logo-gradient')"  d="M501.291 964.03C506.105 956.955 510.904 949.879 516.382 941.83C518.994 943.863 522 946.462 525.247 948.693C547.101 963.705 571.438 970.328 596.101 959.807C619.606 949.78 638.381 932.58 649.887 908.572C662.112 883.025 661.632 856.222 659.19 829.037C656.945 804.111 649.887 780.669 638.466 758.44C631.012 743.937 620.453 732.555 606.321 724.279C588.915 714.083 570.478 706.57 550.644 703.054C519.474 697.518 495.489 679.639 472.436 659.501C447.039 637.315 421.459 615.271 395.159 594.172C367.433 571.916 334.428 560.053 300.998 549.419C292.613 546.75 284.453 543.305 275.983 540.946C256.403 535.495 238.531 542.754 220.136 548.29C183.785 559.22 156.172 583.694 127.317 606.261C101.313 626.611 80.9846 652.115 71.0179 683.509C60.416 716.907 47.7813 750.137 46.4825 785.922C46.3555 789.382 45.2261 792.799 42.9251 796.033C44.7885 782.194 45.819 768.171 48.713 754.543C54.1057 729.052 59.569 703.491 66.8393 678.481C77.4835 641.82 100.734 612.842 128.22 587.464C155.988 561.819 187.243 541.102 222.169 525.977C242.695 517.094 262.53 520.681 282.336 526.881C338.493 544.477 388.623 573.709 435.788 608.294C462.285 627.726 487.71 648.67 514.617 667.508C523.878 673.99 535.877 677.436 547.143 680.006C581.094 687.717 610.331 700.582 633.553 729.349C672.728 777.858 684.826 832.172 676.652 891.936C674.761 905.804 667.505 920.209 659.034 931.648C639.934 957.449 616.782 978.83 584.059 987.232C558.846 993.7 536.428 988.531 515.478 974.198C510.707 970.935 506.105 967.447 501.404 964.058C501.39 964.058 501.319 964.058 501.319 964.058L501.291 964.03Z" />
<path fill="url('#logo-gradient')"  d="M95.4686 205.18C95.7227 233.494 100.395 260.778 112.861 285.845C120.668 301.535 130.973 316.095 141.18 330.443C151.556 345.045 161.917 360.028 174.51 372.611C205.525 403.581 242.935 413.749 285.343 400.855C303.271 395.404 314.918 381 326.268 367.245C350.394 337.984 368.393 305.164 381.367 269.463C385.644 257.686 396.514 252.87 409.135 255.059C420.259 256.979 432.16 261.682 442.522 259.493C472.181 253.237 498.792 239.172 521.704 219.076C537.374 205.335 552.889 191.284 567.217 176.173C577.057 165.807 584.991 153.578 593.306 141.842C600.082 132.267 606.265 122.269 612.519 112.341C614.368 109.404 616.062 106.212 616.994 102.893C622.33 83.9558 628.344 65.131 632.283 45.8968C634.951 32.8903 634.584 19.2484 635.628 5.90303C635.727 4.64616 636.151 3.40342 636.419 2.16068C637.492 2.18892 638.551 2.21717 639.624 2.24541C639.624 13.3312 641.007 24.643 639.327 35.4747C636.094 56.3189 632.946 77.4879 626.424 97.4141C618.462 121.732 608.383 145.09 590.793 165.257C567.796 191.637 547.058 220.121 518.443 240.852C497.056 256.344 474.581 270.381 452.389 284.729C441.18 291.974 428.969 291.155 416.673 287.483C410.772 285.718 404.815 283.868 398.759 282.992C388.849 281.58 381.028 286.947 377.428 296.182C369.212 317.253 361.8 338.718 352.229 359.153C339.425 386.507 326.127 414.074 306.193 436.951C293.121 451.963 274.896 457.019 254.116 453.502C227.646 449.012 205.737 436.019 187.653 417.759C140.925 370.578 109.586 314.287 95.9063 249.085C92.9558 235.034 95.4827 219.838 95.4827 205.18H95.4686Z" />
<path fill="url('#logo-gradient')"  d="M100.057 182.33C105.435 198.415 110.094 213.822 115.769 228.862C121.26 243.422 127.288 257.883 141.462 266.752C143.876 268.263 145.993 270.621 147.617 273.008C158.868 289.658 174.778 301.083 190.999 312.169C225.995 336.077 278.877 334.82 311.685 308.059C330.291 292.878 349.25 277.4 364.638 259.168C377.654 243.747 385.814 224.216 396.02 206.451C398.053 202.906 399.352 198.924 401.498 195.45C408.062 184.787 411.845 185.564 424.311 187.118C439.486 189.024 455.537 189.123 470.53 186.313C503.902 180.085 533.845 166.33 554.441 137.507C558.324 132.07 562.827 126.251 564.224 119.995C567.895 103.458 576.887 89.8023 585.047 75.5531C597.922 53.0849 607.041 29.4163 606.265 2.3019H619.69C624.363 17.8927 620.763 33.2999 617.502 48.7777C613.126 69.5371 600.421 85.9611 589.607 103.388C575.984 125.333 565.156 149.779 548.202 168.716C517.031 203.527 477.024 222.903 428.743 220.686C425.285 220.53 421.84 219.429 418.438 218.567C403.912 214.91 395.639 218.497 388.806 231.87C385.334 238.677 382.072 245.597 379.023 252.602C360.516 295.109 332.931 328.663 291.469 351.725C257.702 370.507 202.603 359.788 182.571 338.464C166.506 321.362 149.72 304.924 133.895 287.61C128.841 282.089 125.467 274.9 121.966 268.136C112.621 250.13 99.5484 198.782 100.071 182.344L100.057 182.33Z" />
<path fill="url('#logo-gradient')"  d="M585.753 3.33281C581.73 18.3022 579.132 33.427 573.584 47.3513C564.888 69.1417 555.514 90.8756 543.967 111.24C530.4 135.177 509.549 150.358 480.863 152.109C463.881 153.154 446.926 155.089 430.452 147.999C424.424 145.401 412.212 153.366 407.017 162.192C400.453 173.334 393.832 184.448 387.733 195.859C374.802 220.036 355.575 238.55 334.272 254.96C322.019 264.408 309.384 273.841 295.634 280.733C274.007 291.579 250.53 288.034 228.112 283.331C209.308 279.377 189.7 274.999 173.07 265.975C144.822 250.639 123.872 227.309 114.343 195.294C105.605 165.963 98.2356 136.292 95.9768 105.746C94.4663 85.368 86.3914 68.1532 73.7566 53.099C61.1501 38.0731 56.3927 19.8133 48.6848 2.73968C49.4048 2.3019 50.1389 1.86411 50.8588 1.42633C55.1504 8.07783 59.5408 14.687 63.7194 21.4091C70.1991 31.8312 75.9024 42.7758 83.0739 52.6895C93.7181 67.4047 99.4214 83.3909 100.875 101.481C102.471 121.365 103.078 141.743 108.117 160.85C120.046 206.182 147.927 237.731 195.008 248.633C213.501 252.912 232.474 256.076 251.391 257.431C288.646 260.086 320.706 246.501 347.232 220.869C362.379 206.225 376.92 190.634 389.583 173.843C398.448 162.093 403.446 147.491 410.547 134.357C423.379 110.618 437.75 111.48 455.763 117.806C483.292 127.48 505.667 119.685 524.33 101.439C535.934 90.0989 544.319 74.7058 551.547 59.8776C559.058 44.4422 564.422 27.7358 568.813 11.0858C571.156 2.20305 574.601 0.0141221 585.767 3.34693L585.753 3.33281Z"/>
<path fill="url('#logo-gradient')"  d="M68.5616 0C73.3755 2.52785 78.9941 4.18014 82.8339 7.75302C100.381 24.0781 109.134 44.9647 112.042 68.4356C113.99 84.1535 113.99 100.323 117.774 115.561C121.26 129.556 127.105 143.565 134.855 155.696C140.375 164.339 149.819 171.781 159.179 176.427C190.9 192.216 225.501 198.203 260.299 195.351C285.978 193.247 310.894 186.228 333.693 170.694C359.796 152.886 383.244 132.762 402.853 108.528C412.269 96.9057 417.549 81.9787 425.115 68.7886C430.903 58.7055 436.847 48.6364 443.609 39.2029C448.352 32.5796 455.298 30.6873 463.118 34.9098C465.165 36.0113 467.777 36.096 469.739 37.2823C492.736 51.1361 510.072 36.0395 519.361 19.6721C520.236 18.1328 520.97 16.5228 521.803 14.9835C529.821 0.112977 525.219 0.833203 545.985 2.429C546.197 2.90915 546.677 3.44579 546.606 3.89769C541.044 35.9689 530.795 64.7921 497.705 79.2249C484.52 84.9726 472.323 81.9645 460.055 77.5867C439.303 70.1726 429.717 73.1806 420.33 93.5023C402.599 131.886 377.23 164.381 345.34 191.566C319.012 214.006 287.743 222.804 253.071 222.592C215.887 222.366 181.893 211.252 149.17 195.45C132.752 187.527 124.733 171.273 120.442 154.722C115.007 133.778 111.35 112.214 109.035 90.692C106.042 62.8291 97.6709 38.1014 77.0318 18.2457C72.712 14.0938 69.9027 8.37439 66.4017 3.37518C67.1216 2.25953 67.8416 1.14389 68.5475 0.0282442L68.5616 0Z" />
<path fill="url('#logo-gradient')"  d="M129.604 2.61258C146.968 0.0706105 147.335 -0.0706107 153.772 14.3622C158.854 25.7587 164.755 36.0678 174.326 44.6258C189.629 58.3242 206.993 59.9482 225.966 56.7143C248.907 52.8025 268.289 42.0556 286.387 27.7923C297.879 18.74 310.711 11.3683 323.035 3.3893C324.644 2.34427 326.861 1.7935 328.795 1.77938C350.817 1.66641 372.854 1.70877 396.218 3.67174C388.51 9.95607 381.127 16.7347 373.023 22.4541C344.267 42.7758 316.781 64.9757 284.75 80.397C254.822 94.8156 223.623 101.1 190.688 96.129C168.581 92.7962 155.932 78.434 149.043 57.8723C143.862 42.3804 138.017 27.1144 132.512 11.7354C131.453 8.75569 130.592 5.70532 129.604 2.59846V2.61258Z"/>
<path fill="url('#logo-gradient')"  d="M437.905 1.15801C429.633 39.2453 415.742 72.8558 385.206 97.0752C366.374 112.016 348.149 128.257 327.538 140.275C293.149 160.328 254.638 163.505 215.548 159.961C205.92 159.085 196.391 157.221 186.778 156.176C147.815 151.968 130.084 118.244 128.615 89.1668C127.5 67.1505 121.698 47.0548 110.207 28.3713C105.181 20.2087 100.72 11.7072 95.8639 3.1351C106.508 -0.663738 112.141 2.79617 117.054 10.9729C129.462 31.6193 134.742 54.2994 138.441 77.6714C142.168 101.326 152.572 118.88 177.785 126.336C219.614 138.707 261.09 139.625 300.801 121.633C332.409 107.314 360.657 86.639 386.378 63.0692C396.091 54.1723 405.577 44.88 414.104 34.8674C418.904 29.2327 421.501 21.7198 425.186 15.1106C428.108 9.85721 429.421 3.05037 437.877 1.15801H437.905Z"/>
<path fill="url('#logo-gradient')"  d="M647.261 716.907C625.45 698.436 604.783 679.018 577.48 668.257C548.908 656.987 522.89 641.1 498.538 622.261C488.854 614.776 477.56 609.339 466.93 603.098C442.451 588.707 417.986 574.26 393.38 560.082C384.741 555.097 375.677 550.86 366.854 546.214C363.212 544.293 359.584 542.344 356.111 540.141C341.359 530.835 333.312 517.984 336.969 500.105C340.145 484.599 342.573 468.613 348.333 454.039C357.932 429.693 361.405 404.202 367.052 379.037C370.13 365.268 377.103 352.275 383.301 339.396C384.755 336.388 390.119 333.676 393.776 333.564C434.898 332.321 468.864 316.532 497.027 286.424C509.408 273.192 524.217 262.247 537.882 250.215C541.143 247.334 544.192 244.227 548.526 242.137C543.091 248.732 537.699 255.37 532.235 261.936C517.37 279.787 502.971 298.075 487.386 315.261C478.591 324.963 468.525 333.945 457.712 341.288C439.741 353.476 420.725 364.11 402.105 375.337C399.846 376.692 397.446 378.486 394.99 378.726C381 380.025 377.132 389.812 374.774 401.448C366.897 440.425 360.685 479.515 366.177 519.452C368.125 533.659 376.186 544.138 388.143 550.818C398.801 556.777 410.631 560.618 421.812 565.688C430.875 569.798 440.263 573.526 448.578 578.864C478.238 597.901 507.333 617.827 537.007 636.835C551.576 646.17 566.808 654.544 582.012 662.848C603.653 674.668 622.485 690.047 639.821 707.375C642.659 710.199 644.819 713.716 647.289 716.907H647.261Z" />
<path fill="url('#logo-gradient')"  d="M475.922 574.43C465.462 567.99 455.34 560.929 444.456 555.323C435.153 550.535 425.2 546.68 415.135 543.757C393.818 537.571 382.99 524.663 382.369 502.478C381.96 487.791 381.889 473.09 381.889 458.403C381.889 449.223 385.531 442.529 394.143 437.77C410.956 428.492 422.899 414.398 431.976 397.424C434.941 391.874 440.263 387.072 445.5 383.33C456.215 375.676 467.833 369.278 478.591 361.681C482.219 359.124 484.661 354.676 487.23 350.821C496.237 337.306 505.06 323.678 513.954 310.093C514.843 310.672 515.747 311.265 516.636 311.844C508.123 325.006 499.427 338.054 491.183 351.386C487.837 356.78 486.171 363.29 482.501 368.389C469.866 385.914 456.356 402.818 443.806 420.4C429.59 440.312 421.388 462.823 417.676 486.943C416.786 492.719 416.744 498.622 415.939 504.427C414.739 513.225 416.829 521.133 423.351 526.98C435.548 537.91 448.239 548.29 460.718 558.895C466.252 563.598 471.814 568.287 477.362 572.975C476.868 573.455 476.374 573.95 475.88 574.43H475.922Z" />
<path fill="url('#logo-gradient')"  d="M85.3749 268.136C98.7438 311.039 113.524 353.278 138.074 391.45C151.739 412.704 165.63 433.844 178.674 455.479C184.702 465.492 189.502 476.352 193.85 487.24C196.871 494.824 196.702 503.339 191.027 509.821C183.135 518.831 175.06 527.954 165.757 535.425C125.919 567.411 90.57 602.985 69.0274 650.322C64.1994 660.913 59.0749 671.364 53.2446 681.729C58.0726 667.085 62.3501 652.228 67.8698 637.852C75.846 617.078 87.8737 598.593 102.767 582.07C122.404 560.294 138.3 535.227 162.143 517.094C173.268 508.621 175.936 495.869 169.795 482.876C160.647 463.515 150.539 444.62 141.151 425.371C129.321 401.081 117.364 376.834 106.268 352.205C94.2404 325.514 88.2548 297.171 85.3749 268.136Z" />
<path fill="url('#logo-gradient')"  d="M79.8834 299.572C81.2951 306.689 83.0315 312.917 83.7233 319.258C86.1796 342.136 95.1157 362.853 104.179 383.612C115.444 409.427 126.681 435.271 136.973 461.481C142.337 475.151 145.612 489.669 142.097 504.624C141.18 508.55 140.29 512.985 137.904 515.993C120.964 537.232 103.628 558.161 85.6008 578.652C90.5982 570.956 95.7369 563.358 100.551 555.549C106.875 545.296 112.706 534.733 119.185 524.593C129.505 508.451 131.806 490.756 127.02 472.92C120.413 448.32 113.355 423.634 103.911 400.022C91.0359 367.852 80.2646 335.512 79.8834 299.558V299.572Z" />
<path fill="url('#logo-gradient')"  d="M693 887.657C691.052 898.009 690.035 908.671 686.873 918.641C684.177 927.129 680.069 935.658 674.704 942.734C662.648 958.593 651.482 976.132 636.25 988.39C600.886 1016.85 546.959 1029.75 503.493 1004.93C497.663 1001.59 491.409 999.024 484.379 995.635C486.397 991.85 488.247 988.404 490.35 984.478C495.7 988.348 500.119 992.246 505.145 995.056C526.179 1006.78 548.47 1009.56 572.328 1005.89C614.862 999.335 645.03 973.943 669.806 941.632C681.65 926.183 688.92 907.33 693 887.672V887.657Z"/>
<path fill="url('#logo-gradient')"  d="M81.0551 256.019C76.9471 242.744 67.4604 235.217 57.6632 227.591C38.3229 212.537 23.0906 193.614 27.6645 167.912C31.8291 144.525 40.4122 121.803 55.8421 102.597C54.5434 104.984 53.2587 107.384 51.9458 109.771C34.7654 140.981 29.7398 177.444 60.3313 205.392C76.6083 220.262 83.2292 238.042 81.0693 256.033L81.0551 256.019Z"/>
<path fill="url('#logo-gradient')"  d="M473.932 1008.61C506.556 1026.86 541.835 1035.22 577.876 1029.99C615.61 1024.53 644.353 1000.89 669.82 973.463C658.074 994.265 645.143 1014.56 622.387 1025.02C608.905 1031.22 594.35 1036.96 579.81 1038.51C563.829 1040.22 546.733 1039.16 531.177 1035.15C511.088 1029.98 492.058 1020.72 472.577 1013.2C473.029 1011.68 473.466 1010.14 473.918 1008.61H473.932Z" />
<path fill="url('#logo-gradient')"  d="M62.5195 78.2222C71.752 100.874 81.0975 123.822 90.4571 146.757L88.8054 147.66C80.6599 132.394 72.5002 117.129 64.637 102.413C61.7572 119.035 63.3242 135.572 73.1637 151.149C85.262 170.326 90.7818 191.213 86.0526 214.373C88.9466 196.184 72.5426 188.021 66.317 174.591C62.3783 166.104 58.3832 157.588 55.348 148.762C53.8799 144.497 53.7105 139.385 54.3598 134.852C56.2374 121.831 59.0043 108.938 61.0654 95.9454C61.9972 90.0989 62.0819 84.1111 62.5477 78.2222H62.5195Z" />
<path fill="url('#logo-gradient')"  d="M74.4201 281.834C68.1522 267.839 54.5716 262.586 43.2215 254.48C23.8812 240.654 13.2087 221.279 9.6371 197.78C7.49132 183.672 9.36888 170.284 15.4674 157.489C16.738 154.82 18.7426 152.518 21.3401 150.697C18.9685 157.419 16.1309 164 14.3098 170.863C6.40431 200.519 29.6692 239.341 53.2305 250.102C66.2181 256.033 74.0531 266.625 74.4201 281.834Z" />
<path fill="url('#logo-gradient')"  d="M92.7864 418.197C101.751 440.821 108.781 463.656 109.317 488.356C109.642 503.254 106.875 516.642 99.7743 529.691C91.4312 545.028 84.1044 560.915 75.5777 576.266C83.568 550.239 103.558 528.886 102.781 499.286C102.075 471.833 102.866 444.464 92.7864 418.211V418.197Z" />
<path fill="url('#logo-gradient')"  d="M469.118 427.179C455.552 464.164 447.773 501.419 462.271 538.969C447.872 525.709 442.253 502.294 448.31 482.269C452.46 468.571 454.973 454.364 458.926 440.595C460.408 435.44 463.895 430.851 466.464 426.007C467.353 426.402 468.229 426.783 469.118 427.179Z" />
<path fill="url('#logo-gradient')"  d="M53.5975 34.472C68.0675 71.8814 97.6568 103.67 94.7345 147.562C91.8688 135.939 89.6383 124.514 86.1796 113.457C83.2292 104.037 79.1352 94.9286 75.0695 85.8905C68.4769 71.2318 61.4325 56.7849 54.7975 42.1403C53.7669 39.8666 53.9646 37.0422 53.5834 34.472H53.5975Z" />
<path fill="url('#logo-gradient')"  d="M2.02803 196.65C1.16689 230.543 20.0837 253.703 43.0803 274.689C19.2931 262.685 -7.67037 224.273 2.02803 196.65Z" />
<path fill="url('#logo-gradient')"  d="M184.293 2.07595H230.879C219.458 12.1732 197.041 12.2438 184.293 2.07595Z" />
<path fill="url('#logo-gradient')"  d="M75.9448 358.079C80.7446 375.082 85.5444 392.085 90.3441 409.088C89.2995 409.357 88.2689 409.639 87.2243 409.907C82.8904 392.777 78.5564 375.647 74.2366 358.517C74.8013 358.362 75.3801 358.221 75.9448 358.065V358.079Z" />
<path fill="url('#logo-gradient')"  d="M55.8986 643.769C61.3195 627.726 66.7264 611.684 72.1473 595.641C72.9802 595.924 73.8272 596.206 74.6601 596.488C69.2533 612.432 63.8465 628.376 58.4397 644.32C57.5926 644.136 56.7456 643.953 55.8986 643.769Z" />
<path fill="url('#logo-gradient')"  d="M541.313 622.713C554.78 630.523 568.234 638.332 581.701 646.142C581.306 646.834 580.925 647.511 580.53 648.203C566.963 640.563 553.397 632.937 539.844 625.297C540.338 624.436 540.818 623.575 541.313 622.713Z" />
<path fill="url('#logo-gradient')"  d="M520.617 604.143C511.215 594.751 501.799 585.346 492.397 575.955C493.032 575.305 493.653 574.67 494.289 574.02C503.154 584.004 512.034 593.989 520.899 603.973C520.8 604.03 520.702 604.086 520.617 604.143Z" />
<path fill="url('#logo-gradient')"  d="M68.1522 310.375C59.329 304.627 50.52 298.88 41.6969 293.146C42.2333 292.313 42.7698 291.48 43.3062 290.647C52.1011 296.408 60.9101 302.184 69.7051 307.946L68.1522 310.375Z" />
<path fill="url('#logo-gradient')"  d="M508.081 854.358C509.225 892.346 497.578 925.222 481.936 957.35C455.467 1011.71 408.33 1041.09 355.645 1064.01C342.474 1069.75 329.232 1075.83 315.426 1079.44C278.736 1088.97 244.22 1083.73 211.581 1063.24C188.359 1048.66 173.564 1027.88 161.325 1004.43C145.852 974.777 135.236 943.539 129.886 910.45C128.164 899.774 123.646 889.409 122.912 878.732C121.656 860.388 120.611 841.69 122.686 823.515C125.383 799.973 128.954 776.065 136.21 753.625C151.598 705.963 184.505 675.05 231.754 657.072C275.517 640.422 316.372 645.167 358.172 662.834C416.278 687.392 458.22 729.151 488.825 782.9C501.488 805.142 510.693 829.291 508.081 854.358ZM278.595 671.533C262.106 669.259 245.321 678.114 228.479 686.587C200.542 700.653 180.1 721.85 169.583 751.507C165.786 762.211 164.416 773.777 162.016 784.962C154.478 820.154 151.923 855.304 162.496 890.44C164.275 896.328 165.066 902.514 166.534 908.502C175.343 944.273 181.766 980.369 207.332 1010.19C230.3 1036.98 257.109 1053.03 292.133 1053.28C332.126 1053.56 367.377 1037.79 399.338 1015.52C428.419 995.254 450.159 967.913 466.958 936.477C480.99 910.21 488.585 883.308 486.976 852.931C484.802 811.977 466.408 779.327 440.319 749.953C418.311 725.155 390.938 707.135 361.137 693.352C336.136 681.8 310.584 670.742 278.581 671.519L278.595 671.533Z" />
<path fill="url('#logo-gradient')"  d="M323.487 1007.79C292.754 1012.78 268.939 996.652 248.624 972.235C222.211 940.46 206.767 904.11 204.48 862.972C203.238 840.546 202.659 817.57 206.118 795.511C212.231 756.463 235.862 731.284 274.981 722.118C297.61 716.823 319.111 721.031 340.131 730.309C366.473 741.932 390.698 756.929 410.335 777.844C422.038 790.314 431.623 805.071 440.588 819.744C451.994 838.414 446.616 859.187 445.161 879.283C443.467 902.825 431.44 921.635 418.904 940.855C407.469 958.409 393.931 973.364 378.077 986.667C363.029 999.292 346.653 1008.33 323.473 1007.78L323.487 1007.79ZM367.504 850.827C369.522 839.092 363.932 830.35 355.801 822.936C345.961 813.983 334.202 808.884 320.974 807.698C304.372 806.201 291.088 815.451 284.679 830.915C276.632 850.305 280.882 869.765 289.31 886.16C302.537 911.919 327.708 914.857 349.886 897.303C365.174 885.214 368.308 868.847 367.504 850.827Z" />
</svg>
