<svg width="135" height="126" viewBox="0 0 135 126" fill="none" xmlns="http://www.w3.org/2000/svg">
<path d="M135 63.101C135 63.101 133.358 62.5041 119.964 68.1889C106.569 73.8737 101.118 96.3571 101.118 96.3571C101.118 96.3571 96.9116 108.786 91.2979 108.786C85.6841 108.786 78.0239 80.8305 78.0239 80.8305C78.0239 80.8305 74.215 70.5481 61.3887 70.5481V55.6183C74.215 55.6183 78.0239 45.3359 78.0239 45.3359C78.0239 45.3359 85.6841 17.3809 91.2979 17.3809C96.9116 17.3809 101.118 29.8093 101.118 29.8093C101.118 29.8093 106.91 52.4348 119.964 57.9775C133.017 63.5202 135 63.0654 135 63.0654V63.101Z" fill="#E5232C"/>
<path d="M108.146 63.0298L108.047 63.1293C88.3988 63.1293 77.7753 80.809 77.7753 80.809C71.7139 90.5443 62.1918 125.399 54.0697 125.399C45.9475 125.399 39.0831 98.5883 39.0831 98.5883C27.2658 59.2991 0 63.1293 0 63.1293L0.0994842 63.0298V63.1293L0 63.0298C0 63.0298 27.2658 66.8599 39.0902 27.5708C39.0902 27.5708 45.9546 0.759766 54.0768 0.759766C62.1989 0.759766 71.7139 35.6219 77.7824 45.35C77.7824 45.35 88.4059 63.0298 108.054 63.0298L108.154 63.1293V63.0298H108.146Z" fill="#5A52A2"/>
<path d="M108.146 63.1288C88.4983 63.1288 77.8748 80.8086 77.8748 80.8086C77.8748 80.8086 74.066 70.5262 61.2396 70.5262C45.0024 70.5262 39.1897 98.5878 39.1897 98.5878C27.3653 59.2987 0.0994842 63.1288 0.0994842 63.1288L0 63.0293C0 63.0293 27.2658 66.8595 39.0902 27.5703C39.0902 27.5703 44.9029 55.632 61.1402 55.632C73.9665 55.632 77.7753 45.3496 77.7753 45.3496C77.7753 45.3496 88.3988 63.0293 108.047 63.0293L108.146 63.1288Z" fill="#D288AA"/>
</svg>
