<svg width="957" height="401" viewBox="0 0 957 401" fill="none" xmlns="http://www.w3.org/2000/svg">
<path d="M376 203.55C376 203.55 371.429 201.884 334.125 217.744C296.822 233.603 281.643 296.327 281.643 296.327C281.643 296.327 269.928 331 254.294 331C238.66 331 217.327 253.011 217.327 253.011C217.327 253.011 206.72 224.325 171 224.325V182.675C206.72 182.675 217.327 153.989 217.327 153.989C217.327 153.989 238.66 76 254.294 76C269.928 76 281.643 110.673 281.643 110.673C281.643 110.673 297.772 173.793 334.125 189.256C370.479 204.719 376 203.45 376 203.45V203.55Z" fill="#E5232C"/>
<path d="M300.98 203.362L300.703 203.638C246.021 203.638 216.455 252.859 216.455 252.859C199.586 279.963 173.085 377 150.48 377C127.876 377 108.771 302.357 108.771 302.357C75.8829 192.975 0 203.638 0 203.638L0.276873 203.362V203.638L0 203.362C0 203.362 75.8829 214.025 108.791 104.643C108.791 104.643 127.895 30 150.5 30C173.105 30 199.586 127.057 216.475 154.141C216.475 154.141 246.041 203.362 300.723 203.362L301 203.638V203.362H300.98Z" fill="#5A52A2"/>
<path d="M301 203.639C246.314 203.639 216.746 253.18 216.746 253.18C216.746 253.18 206.145 224.368 170.446 224.368C125.253 224.368 109.075 303 109.075 303C76.1647 192.907 0.276891 203.639 0.276891 203.639L0 203.361C0 203.361 75.8878 214.093 108.798 104C108.798 104 124.977 182.632 170.169 182.632C205.868 182.632 216.469 153.82 216.469 153.82C216.469 153.82 246.037 203.361 300.723 203.361L301 203.639Z" fill="#D288AA"/>
<path d="M398.099 115.177H376.122V26.9228H343V4.83789H431.164V26.9228H398.128V115.177H398.099Z" fill="#D088AA"/>
<path d="M461.586 115.177H440.604V0H461.586V36.4002C464.087 34.4934 466.675 33.1558 469.347 32.3589C472.02 31.562 474.721 31.1636 477.507 31.1636C482.568 31.1636 487.344 32.1312 491.808 34.038C496.271 35.9449 500.138 38.5916 503.464 41.9499C506.762 45.3082 509.378 49.2356 511.311 53.7323C513.245 58.229 514.183 63.0102 514.183 68.0761V115.149H493.059V68.0761H493.201C493.201 65.9131 492.803 63.8925 491.978 61.9572C491.154 60.0219 490.017 58.3428 488.595 56.9198C487.173 55.4968 485.496 54.3584 483.591 53.5331C481.686 52.7077 479.668 52.3093 477.507 52.3093C475.346 52.3093 473.214 52.7077 471.281 53.5331C469.319 54.3584 467.641 55.4968 466.22 56.9198C464.798 58.3428 463.661 60.0219 462.837 61.9572C462.012 63.8925 461.614 65.9131 461.614 68.0761V115.149L461.586 115.177Z" fill="#D088AA"/>
<path d="M561.805 95.0279C562.629 95.2841 563.454 95.4548 564.278 95.5402C565.103 95.6256 565.927 95.6541 566.752 95.6541C568.799 95.6541 570.76 95.3695 572.665 94.8003C574.57 94.2311 576.333 93.4342 578.01 92.3812C579.688 91.3282 581.166 90.0475 582.474 88.5391C583.782 87.0307 584.834 85.3516 585.658 83.5017L601.039 98.9554C599.078 101.716 596.86 104.22 594.301 106.412C591.771 108.632 589.013 110.482 586.085 112.019C583.128 113.555 580.029 114.722 576.788 115.519C573.547 116.316 570.192 116.714 566.752 116.714C560.952 116.714 555.521 115.633 550.432 113.47C545.343 111.307 540.88 108.319 537.07 104.477C533.26 100.635 530.246 96.0525 528.029 90.7305C525.811 85.4085 524.731 79.5742 524.731 73.2277C524.731 66.8811 525.84 60.7622 528.029 55.3833C530.218 50.0044 533.232 45.4223 537.07 41.6087C540.88 37.8235 545.343 34.8637 550.432 32.7577C555.521 30.6517 560.98 29.5986 566.752 29.5986C570.192 29.5986 573.547 29.9971 576.816 30.8224C580.086 31.6477 583.213 32.8146 586.142 34.3514C589.098 35.8883 591.828 37.7666 594.415 40.015C596.974 42.2348 599.22 44.7393 601.182 47.5284L561.833 94.9995L561.805 95.0279ZM572.552 51.712C571.585 51.342 570.618 51.1143 569.68 51.0289C568.742 50.9151 567.747 50.8866 566.723 50.8866C563.852 50.8866 561.151 51.4274 558.62 52.4519C556.09 53.505 553.872 55.0133 552.024 56.9486C550.148 58.9123 548.67 61.246 547.618 63.9782C546.537 66.7103 545.997 69.8125 545.997 73.2561C545.997 74.0245 546.026 74.9068 546.111 75.8744C546.196 76.8421 546.31 77.8382 546.509 78.8343C546.679 79.8304 546.907 80.798 547.163 81.7087C547.419 82.6194 547.76 83.4448 548.158 84.1847L572.608 51.712H572.552Z" fill="#D088AA"/>
<path d="M427.383 257.306H351.842V146.995H427.383V169.08H373.904V191.165H410.097V213.25H373.904V235.249H427.383V257.334V257.306Z" fill="#D088AA"/>
<path d="M461.586 257.305H440.604V174.914H445.664L452.573 184.676C455.956 181.602 459.794 179.24 464.087 177.561C468.381 175.882 472.844 175.056 477.45 175.056H495.959V195.974H477.45C475.232 195.974 473.157 196.373 471.224 197.198C469.262 198.024 467.584 199.162 466.163 200.585C464.741 202.008 463.604 203.715 462.78 205.651C461.955 207.614 461.557 209.692 461.557 211.883V257.277L461.586 257.305Z" fill="#D088AA"/>
<path d="M583.782 215.384C583.782 221.531 582.673 227.28 580.484 232.574C578.266 237.896 575.281 242.478 571.5 246.348C567.718 250.219 563.255 253.264 558.166 255.512C553.076 257.732 547.589 258.87 541.761 258.87C535.933 258.87 530.531 257.761 525.442 255.512C520.352 253.292 515.889 250.219 512.079 246.348C508.269 242.478 505.256 237.896 503.038 232.574C500.82 227.28 499.74 221.531 499.74 215.384C499.74 209.236 500.849 203.345 503.038 197.995C505.227 192.673 508.241 188.062 512.079 184.192C515.889 180.321 520.352 177.276 525.442 175.085C530.531 172.893 535.989 171.783 541.761 171.783C547.532 171.783 553.076 172.808 558.166 174.885C563.255 176.963 567.718 179.923 571.5 183.736C575.281 187.55 578.295 192.16 580.484 197.511C582.673 202.861 583.782 208.838 583.782 215.412V215.384ZM562.658 215.384C562.658 211.997 562.118 208.923 561.009 206.191C559.9 203.459 558.421 201.097 556.517 199.105C554.612 197.141 552.394 195.604 549.864 194.58C547.333 193.527 544.632 193.014 541.761 193.014C538.889 193.014 536.188 193.555 533.658 194.58C531.128 195.633 528.91 197.141 527.062 199.105C525.186 201.068 523.707 203.431 522.655 206.191C521.575 208.923 521.035 211.997 521.035 215.384C521.035 218.571 521.575 221.503 522.655 224.235C523.736 226.967 525.214 229.301 527.062 231.321C528.939 233.314 531.128 234.907 533.658 236.046C536.188 237.184 538.889 237.782 541.761 237.782C544.632 237.782 547.333 237.241 549.864 236.16C552.394 235.078 554.612 233.57 556.517 231.634C558.421 229.699 559.9 227.337 561.009 224.548C562.118 221.787 562.658 218.714 562.658 215.384Z" fill="#D088AA"/>
<path d="M636.038 257.306C630.977 257.306 626.201 256.338 621.737 254.432C617.274 252.496 613.379 249.878 610.024 246.52C606.669 243.161 604.025 239.262 602.12 234.794C600.187 230.326 599.248 225.573 599.248 220.479V196.003H589.013V175.085H599.248V142.157H620.145V175.085H651.959V196.003H620.145V220.479C620.145 222.699 620.543 224.748 621.368 226.683C622.192 228.618 623.301 230.298 624.751 231.721C626.172 233.144 627.878 234.31 629.812 235.136C631.745 235.99 633.82 236.416 636.038 236.416H651.959V257.334H636.038V257.306Z" fill="#D088AA"/>
<path d="M688.465 152.545C688.465 154.509 688.095 156.302 687.356 158.01C686.617 159.689 685.593 161.169 684.314 162.421C683.034 163.673 681.527 164.669 679.822 165.409C678.116 166.149 676.268 166.519 674.334 166.519C672.401 166.519 670.553 166.149 668.847 165.409C667.141 164.669 665.635 163.673 664.384 162.421C663.133 161.169 662.138 159.689 661.398 158.01C660.659 156.33 660.29 154.509 660.29 152.545C660.29 150.582 660.659 148.845 661.398 147.109C662.138 145.402 663.133 143.893 664.384 142.641C665.635 141.389 667.113 140.393 668.847 139.653C670.553 138.913 672.401 138.543 674.334 138.543C676.268 138.543 678.116 138.913 679.822 139.653C681.527 140.393 683.034 141.389 684.314 142.641C685.593 143.893 686.617 145.373 687.356 147.109C688.095 148.817 688.465 150.638 688.465 152.545ZM684.854 257.335H663.73V174.943H684.854V257.335Z" fill="#D088AA"/>
<path d="M721.985 257.306H700.861V142.129H721.985V214.759L753.259 175.057H777.397L750.103 209.38L777.397 257.306H753.259L736.57 227.366L721.956 246.748V257.278L721.985 257.306Z" fill="#D088AA"/>
<path d="M862.86 257.306H857.799L849.64 246.008C847.649 247.801 845.517 249.48 843.3 251.045C841.082 252.61 838.722 253.977 836.277 255.115C833.832 256.253 831.302 257.192 828.714 257.847C826.127 258.502 823.512 258.843 820.839 258.843C815.039 258.843 809.609 257.876 804.52 255.912C799.431 253.977 794.967 251.131 791.157 247.402C787.347 243.674 784.334 239.12 782.116 233.742C779.899 228.363 778.818 222.215 778.818 215.356C778.818 208.953 779.927 203.062 782.116 197.711C784.305 192.361 787.319 187.75 791.157 183.908C794.967 180.066 799.431 177.078 804.52 174.943C809.609 172.809 815.068 171.756 820.839 171.756C823.512 171.756 826.156 172.097 828.743 172.752C831.359 173.407 833.889 174.346 836.362 175.513C838.836 176.679 841.167 178.074 843.385 179.668C845.602 181.261 847.706 182.969 849.64 184.819L857.799 175.057H862.86V257.306ZM841.736 215.385C841.736 212.51 841.196 209.721 840.087 207.046C838.978 204.342 837.5 201.98 835.595 199.903C833.69 197.825 831.472 196.146 828.942 194.894C826.412 193.642 823.711 193.015 820.839 193.015C817.968 193.015 815.267 193.499 812.736 194.467C810.206 195.435 807.988 196.886 806.14 198.764C804.264 200.671 802.785 203.005 801.734 205.794C800.653 208.583 800.113 211.77 800.113 215.385C800.113 218.999 800.653 222.158 801.734 224.976C802.814 227.765 804.292 230.127 806.14 232.005C808.017 233.912 810.206 235.335 812.736 236.303C815.267 237.271 817.968 237.754 820.839 237.754C823.711 237.754 826.412 237.128 828.942 235.876C831.472 234.624 833.69 232.945 835.595 230.867C837.5 228.79 838.978 226.399 840.087 223.724C841.196 221.02 841.736 218.259 841.736 215.385Z" fill="#D088AA"/>
<path d="M439.978 366.393C439.978 370.946 439.097 375.244 437.362 379.228C435.628 383.241 433.24 386.741 430.255 389.73C427.269 392.718 423.772 395.109 419.764 396.845C415.755 398.581 411.49 399.463 406.941 399.463H351.842V289.152H406.941C411.49 289.152 415.783 290.035 419.764 291.771C423.772 293.507 427.269 295.897 430.255 298.886C433.24 301.874 435.628 305.374 437.362 309.387C439.097 313.4 439.978 317.669 439.978 322.223C439.978 324.272 439.694 326.378 439.125 328.541C438.556 330.704 437.76 332.781 436.737 334.774C435.713 336.766 434.491 338.587 433.041 340.238C431.619 341.889 430.027 343.226 428.264 344.308C430.056 345.275 431.676 346.613 433.098 348.264C434.519 349.943 435.77 351.764 436.794 353.756C437.817 355.749 438.613 357.855 439.125 360.018C439.665 362.209 439.921 364.315 439.921 366.364L439.978 366.393ZM373.876 333.322H406.913C408.448 333.322 409.87 333.038 411.206 332.468C412.542 331.899 413.708 331.131 414.703 330.135C415.698 329.139 416.494 327.943 417.034 326.606C417.603 325.24 417.887 323.788 417.887 322.251C417.887 320.714 417.603 319.291 417.034 317.954C416.466 316.616 415.698 315.449 414.703 314.453C413.708 313.457 412.542 312.66 411.206 312.119C409.87 311.55 408.448 311.266 406.913 311.266H373.876V333.351V333.322ZM373.876 377.407H406.913C408.448 377.407 409.87 377.122 411.206 376.553C412.542 375.984 413.708 375.215 414.703 374.219C415.698 373.223 416.494 372.056 417.034 370.718C417.603 369.381 417.887 367.958 417.887 366.421C417.887 364.884 417.603 363.461 417.034 362.124C416.466 360.786 415.698 359.619 414.703 358.623C413.708 357.627 412.542 356.83 411.206 356.289C409.87 355.72 408.448 355.435 406.913 355.435H373.876V377.435V377.407Z" fill="#D088AA"/>
<path d="M479.184 294.674C479.184 296.638 478.815 298.431 478.076 300.138C477.336 301.818 476.313 303.297 475.033 304.55C473.754 305.802 472.247 306.798 470.541 307.538C468.835 308.278 466.987 308.648 465.054 308.648C463.121 308.648 461.273 308.278 459.567 307.538C457.861 306.798 456.354 305.802 455.103 304.55C453.852 303.297 452.857 301.818 452.118 300.138C451.379 298.459 451.009 296.638 451.009 294.674C451.009 292.71 451.379 290.974 452.118 289.238C452.857 287.531 453.852 286.022 455.103 284.77C456.354 283.518 457.833 282.522 459.567 281.782C461.273 281.042 463.121 280.672 465.054 280.672C466.987 280.672 468.835 281.042 470.541 281.782C472.247 282.522 473.754 283.518 475.033 284.77C476.313 286.022 477.336 287.502 478.076 289.238C478.815 290.946 479.184 292.767 479.184 294.674ZM475.574 399.463H454.449V317.072H475.574V399.463Z" fill="#D088AA"/>
<path d="M524.304 379.314C525.129 379.57 525.953 379.741 526.778 379.826C527.602 379.912 528.427 379.94 529.251 379.94C531.298 379.94 533.26 379.656 535.165 379.086C537.07 378.517 538.832 377.72 540.51 376.667C542.187 375.614 543.666 374.334 544.974 372.825C546.281 371.317 547.333 369.638 548.158 367.788L563.539 383.242C561.577 386.002 559.36 388.507 556.801 390.698C554.27 392.918 551.513 394.768 548.584 396.305C545.627 397.841 542.528 399.008 539.287 399.805C536.046 400.602 532.691 401.001 529.251 401.001C523.451 401.001 518.021 399.919 512.932 397.756C507.843 395.593 503.379 392.605 499.569 388.763C495.76 384.921 492.746 380.339 490.528 375.017C488.311 369.695 487.23 363.86 487.23 357.514C487.23 351.167 488.339 345.048 490.528 339.669C492.717 334.291 495.731 329.708 499.569 325.895C503.379 322.11 507.843 319.15 512.932 317.044C518.021 314.938 523.48 313.885 529.251 313.885C532.691 313.885 536.046 314.283 539.316 315.109C542.585 315.934 545.713 317.101 548.641 318.638C551.598 320.174 554.327 322.053 556.915 324.301C559.473 326.521 561.719 329.025 563.681 331.814L524.333 379.286L524.304 379.314ZM535.051 335.998C534.084 335.628 533.118 335.4 532.18 335.315C531.241 335.201 530.246 335.173 529.223 335.173C526.351 335.173 523.65 335.714 521.12 336.738C518.59 337.791 516.372 339.299 514.524 341.235C512.648 343.198 511.169 345.532 510.117 348.264C509.037 350.996 508.497 354.099 508.497 357.542C508.497 358.311 508.525 359.193 508.61 360.161C508.696 361.128 508.809 362.124 509.008 363.12C509.179 364.116 509.406 365.084 509.662 365.995C509.918 366.906 510.259 367.731 510.657 368.471L535.108 335.998H535.051Z" fill="#D088AA"/>
<path d="M595.154 399.463H574.172V317.071H579.233L586.142 325.069C589.525 321.995 593.363 319.633 597.628 317.954C601.892 316.275 606.384 315.449 611.047 315.449C616.079 315.449 620.799 316.417 625.263 318.324C629.726 320.259 633.621 322.877 636.948 326.236C640.274 329.594 642.918 333.521 644.823 338.018C646.756 342.515 647.695 347.296 647.695 352.362V399.434H626.713V352.362C626.713 350.199 626.315 348.178 625.49 346.243C624.666 344.308 623.528 342.628 622.107 341.205C620.685 339.782 619.008 338.644 617.103 337.819C615.198 336.993 613.179 336.595 611.019 336.595C608.858 336.595 606.726 336.993 604.792 337.819C602.831 338.644 601.153 339.782 599.732 341.205C598.31 342.628 597.173 344.308 596.348 346.243C595.524 348.178 595.126 350.199 595.126 352.362V399.434L595.154 399.463Z" fill="#D088AA"/>
<path d="M683.631 399.463H662.649V317.071H667.71L674.619 325.069C678.002 321.995 681.84 319.633 686.105 317.954C690.37 316.275 694.862 315.449 699.524 315.449C704.557 315.449 709.276 316.417 713.74 318.324C718.204 320.259 722.099 322.877 725.425 326.236C728.751 329.594 731.395 333.521 733.3 338.018C735.234 342.515 736.172 347.296 736.172 352.362V399.434H715.19V352.362C715.19 350.199 714.792 348.178 713.967 346.243C713.143 344.308 712.006 342.628 710.584 341.205C709.162 339.782 707.485 338.644 705.58 337.819C703.675 336.993 701.657 336.595 699.496 336.595C697.335 336.595 695.203 336.993 693.27 337.819C691.308 338.644 689.63 339.782 688.209 341.205C686.787 342.628 685.65 344.308 684.826 346.243C684.001 348.178 683.603 350.199 683.603 352.362V399.434L683.631 399.463Z" fill="#D088AA"/>
<path d="M830.79 399.463H825.729L817.57 388.164C815.579 389.957 813.447 391.636 811.229 393.201C809.012 394.767 806.652 396.133 804.207 397.271C801.734 398.438 799.232 399.349 796.644 400.003C794.057 400.658 791.442 400.999 788.769 400.999C782.969 400.999 777.539 400.032 772.45 398.068C767.361 396.133 762.897 393.287 759.087 389.559C755.277 385.83 752.264 381.277 750.046 375.898C747.828 370.519 746.748 364.372 746.748 357.513C746.748 351.109 747.857 345.218 750.046 339.868C752.235 334.517 755.249 329.907 759.087 326.064C762.897 322.222 767.361 319.234 772.45 317.1C777.539 314.965 782.998 313.912 788.769 313.912C791.442 313.912 794.086 314.254 796.673 314.908C799.289 315.563 801.819 316.502 804.292 317.669C806.766 318.836 809.097 320.23 811.315 321.824C813.532 323.418 815.636 325.125 817.57 326.975L825.729 317.213H830.79V399.463ZM809.666 357.541C809.666 354.667 809.126 351.878 808.017 349.202C806.908 346.499 805.43 344.137 803.525 342.059C801.62 339.981 799.402 338.302 796.872 337.05C794.341 335.798 791.641 335.172 788.769 335.172C785.897 335.172 783.197 335.655 780.666 336.623C778.136 337.591 775.918 339.042 774.07 340.921C772.194 342.827 770.715 345.161 769.663 347.95C768.583 350.739 768.043 353.927 768.043 357.541C768.043 361.156 768.583 364.315 769.663 367.132C770.744 369.921 772.222 372.283 774.07 374.162C775.947 376.069 778.136 377.492 780.666 378.459C783.197 379.427 785.897 379.911 788.769 379.911C791.641 379.911 794.341 379.285 796.872 378.032C799.402 376.78 801.62 375.101 803.525 373.023C805.43 370.946 806.908 368.555 808.017 365.88C809.126 363.176 809.666 360.416 809.666 357.541Z" fill="#D088AA"/>
<path d="M867.921 399.462H846.797V284.285H867.921V399.462Z" fill="#D088AA"/>
<path d="M916.652 379.314C917.476 379.57 918.301 379.741 919.125 379.826C919.95 379.912 920.774 379.94 921.599 379.94C923.646 379.94 925.607 379.656 927.512 379.086C929.417 378.517 931.18 377.72 932.857 376.667C934.535 375.614 936.013 374.334 937.321 372.825C938.629 371.317 939.681 369.638 940.505 367.788L955.886 383.242C953.925 386.002 951.707 388.507 949.148 390.698C946.618 392.918 943.86 394.768 940.932 396.305C937.975 397.841 934.876 399.008 931.635 399.805C928.394 400.602 925.039 401.001 921.599 401.001C915.799 401.001 910.368 399.919 905.279 397.756C900.19 395.593 895.726 392.605 891.917 388.763C888.107 384.921 885.093 380.339 882.876 375.017C880.658 369.695 879.578 363.86 879.578 357.514C879.578 351.167 880.686 345.048 882.876 339.669C885.065 334.291 888.079 329.708 891.917 325.895C895.726 322.11 900.19 319.15 905.279 317.044C910.368 314.938 915.827 313.885 921.599 313.885C925.039 313.885 928.394 314.283 931.663 315.109C934.933 315.934 938.06 317.101 940.989 318.638C943.945 320.174 946.675 322.053 949.262 324.301C951.821 326.521 954.067 329.025 956.028 331.814L916.68 379.286L916.652 379.314ZM927.399 335.998C926.432 335.628 925.465 335.4 924.527 335.315C923.589 335.201 922.594 335.173 921.57 335.173C918.699 335.173 915.998 335.714 913.467 336.738C910.937 337.791 908.719 339.299 906.871 341.235C904.995 343.198 903.517 345.532 902.465 348.264C901.384 350.996 900.844 354.099 900.844 357.542C900.844 358.311 900.872 359.193 900.958 360.161C901.043 361.128 901.157 362.124 901.356 363.12C901.526 364.116 901.754 365.084 902.01 365.995C902.266 366.906 902.607 367.731 903.005 368.471L927.455 335.998H927.399Z" fill="#D088AA"/>
</svg>
