<svg width="1054" height="1105" viewBox="0 0 1054 1105" fill="none" xmlns="http://www.w3.org/2000/svg">
<g clip-path="url(#clip0_151_2340)">
<path d="M534.538 540.582C531.944 535.342 529.992 530.384 527.193 525.992C513.71 504.853 493.242 495.375 470.899 488.851C458.443 485.203 446.039 484.51 433.429 487.001C428.96 487.875 424.261 488.774 420.331 490.957C413.243 494.912 405.847 494.399 398.374 494.296C383.889 494.09 369.405 494.09 354.946 493.474C352.326 493.371 348.808 491.239 347.447 488.902C335.813 469.047 317.656 459.8 297.239 454.74C288.251 452.505 278.8 451.632 269.554 451.529C263.75 451.478 257.921 454.021 252.117 455.433C248.059 456.41 244.001 458.362 239.944 458.336C167.11 458.285 94.2773 457.976 21.4699 457.745C14.7413 457.745 7.98703 457.745 0.84754 457.745C0.744814 455.536 0.667769 453.687 0.513679 450.348C8.29521 450.348 15.7172 450.348 23.1392 450.348C87.1635 450.348 151.188 450.348 215.212 450.348C223.661 450.348 232.111 450.63 240.509 450.091C244.309 449.86 248.033 447.933 251.783 446.777L251.372 443.721C245.568 443.721 239.764 443.721 233.96 443.721C180.568 443.695 127.176 443.644 73.8091 443.618C51.9797 443.618 30.1503 443.618 8.3209 443.618C3.06472 443.618 0.487997 440.93 0.590724 435.553C0.590724 434.397 0.719132 433.267 0.84754 431.597C2.23435 431.417 3.62116 431.083 4.98228 431.083C56.5253 430.878 108.043 430.621 159.586 430.57C177.512 430.57 195.437 431.083 213.363 431.263C222.326 431.34 231.289 431.289 240.252 431.083C242.537 431.032 244.797 430.107 247.057 429.568C246.98 428.849 246.929 428.13 246.852 427.41C245.029 427.205 243.205 426.794 241.382 426.794C163.412 426.717 85.4429 426.691 7.4734 426.563C5.21342 426.563 2.97912 425.433 0.719132 424.816C2.92775 424.148 5.13637 422.915 7.34499 422.89C65.668 422.658 123.991 422.479 182.314 422.427C202.5 422.427 222.66 422.71 242.846 422.684C245.645 422.684 248.419 421.657 251.218 421.092L250.935 418.754H0.898903V392.195C3.62116 392.195 6.31773 392.195 8.98862 392.195C89.706 392.195 170.423 392.195 251.166 392.144C253.735 392.144 256.277 391.425 258.845 391.065C258.794 390.397 258.743 389.729 258.717 389.062H0.924585V341.029C6.95977 341.029 12.7638 341.029 18.5936 341.029C44.455 341.081 70.3164 341.235 96.2035 341.183C137.654 341.081 179.104 340.772 220.554 340.67C232.65 340.644 244.772 341.158 256.842 340.926C259.59 340.875 263.545 339.616 264.88 337.51C272.996 324.539 285.58 319.376 298.755 315.6C322.253 308.871 344.981 312.544 367.479 321.559C379.266 326.286 389.385 332.784 398.348 344.034C400.325 339.796 402.123 335.969 403.536 332.913C399.016 328.161 394.778 323.845 390.669 319.376C380.345 308.151 366.811 302.912 353.251 298.237C331.165 290.608 309.695 293.536 289.792 305.788C283.808 309.487 278.98 315.523 274.203 321.071C270.479 325.387 266.73 327.287 260.951 327.262C195.643 327.005 130.334 327.108 65.0516 327.108C45.0456 327.108 25.0653 327.082 5.05933 327.031C3.80093 327.031 2.56821 326.774 0.950267 326.62V319.684C3.49275 319.684 5.82978 319.684 8.14113 319.684C92.7108 319.71 177.28 319.684 261.85 319.838C269.169 319.838 268.912 313.006 272.431 309.641C272.225 309.153 272.02 308.665 271.814 308.177H1.51526C-0.590632 302.629 0.84754 300.882 5.72705 300.882C68.1077 301.062 130.488 301.139 192.843 301.216C207.687 301.216 222.557 301.216 237.401 301.216C246.852 301.216 256.328 301.448 265.779 301.165C267.628 301.114 270.402 299.675 271.095 298.083C277.208 283.724 289.381 278.022 302.324 273.784C315.062 269.597 327.852 264.794 341.514 265.873C361.366 267.465 380.653 271.37 398.04 284.572C400.736 280.205 403.587 276.07 405.95 271.652C410.007 264.126 413.166 256.035 417.789 248.946C422.925 241.06 428.601 233.252 435.278 226.83C445.089 217.378 455.875 209.03 466.481 200.58C470.95 197.009 476.523 194.903 480.863 191.179C490.468 182.882 499.123 173.301 509.087 165.519C519.308 157.53 530.583 151.058 541.446 144.02C544.168 142.273 547.096 140.86 549.715 138.805C538.313 137.085 527.527 138.831 518.82 146.665C505.081 159.02 492.137 172.377 478.552 184.937C474.52 188.687 469.743 191.975 464.812 194.158C444.138 203.328 426.7 216.351 415.991 237.67C411.394 246.84 407.388 256.343 403.304 265.77C402.097 268.544 401.532 271.601 400.685 274.529C398.502 272.628 396.55 270.316 394.136 268.852C382.4 261.789 370.714 254.648 358.67 248.278C354.792 246.223 349.861 245.992 345.367 245.735C338.407 245.35 331.422 245.966 324.462 245.555C314.42 244.939 306.639 249.973 298.677 255.342C290.845 260.633 284.398 267.234 278.851 275.043C277.773 276.558 275.153 277.585 273.227 277.585C219.475 277.508 165.724 277.175 111.972 277.072C76.4286 276.995 40.8852 277.149 5.34183 277.431C0.796177 277.457 -0.0769989 275.89 1.07867 271.113C3.33866 271.113 5.47023 271.113 7.62749 271.113C94.9451 271.241 182.263 271.344 269.58 271.626C273.407 271.626 274.896 270.137 276.643 266.9C279.082 262.354 281.933 257.679 285.631 254.289C295.21 245.453 306.87 239.622 319.146 237.952C329.572 236.54 340.872 237.824 351.145 240.547C364.345 244.04 376.929 250.127 389.77 255.11C395.78 257.422 403.099 251.925 402.765 245.17C402.714 244.091 401.609 242.833 400.711 242.036C385.122 228.243 366.143 221.077 346.933 217.275C321.919 212.318 297.804 215.965 280.752 239.853C279.493 241.625 276.489 242.91 274.306 242.91C222.223 242.55 170.141 241.831 118.033 241.471C82.4381 241.24 46.869 241.471 11.2743 241.471C8.70612 241.471 6.08659 241.728 3.59548 241.266C2.46548 241.06 1.56663 239.391 0.53936 238.389C1.56663 237.413 2.54253 235.666 3.64684 235.564C7.29363 235.255 10.9661 235.589 14.6386 235.615C61.0453 235.82 107.426 236.052 153.833 236.18C192.715 236.283 231.623 236.231 270.505 236.411C276.078 236.437 276.668 231.711 280.546 227.935H0.873222C0.770495 225.7 0.667769 223.877 0.565042 221.591C6.36909 221.591 11.8136 221.591 17.2581 221.591C97.4362 221.642 177.589 221.668 257.767 221.745C262.903 221.745 268.065 222.464 273.15 222.053C275.179 221.873 277.644 219.921 278.877 218.02C281.548 213.936 283.551 209.364 285.965 204.664H0.924585V192.617C2.97912 192.489 4.90524 192.257 6.85704 192.283C92.8905 192.643 178.924 193.054 264.957 193.439C270.248 193.439 275.59 194.004 280.854 193.516C284.065 193.208 287.146 191.358 290.28 190.203C290.1 189.355 289.894 188.507 289.715 187.66H0.975948V171.58C3.10752 171.426 5.08501 171.17 7.0625 171.195C61.8928 171.426 116.749 171.606 171.579 171.991C209.716 172.248 247.828 172.736 285.965 173.224C289.56 173.276 292.026 172.428 294.132 168.909C296.854 164.311 300.527 160.33 304.045 155.732H1.41254C0.0257276 147.256 0.154136 147.051 6.75432 147.076C85.2631 147.307 163.798 147.513 242.306 147.873C263.006 147.975 283.731 148.643 304.43 148.797C306.998 148.797 309.746 147.693 312.135 146.511C320.866 142.196 329.47 137.65 338.099 133.103C341.001 131.588 343.8 129.867 346.625 128.249C346.394 127.298 346.189 126.374 345.957 125.423C230.981 124.781 116.03 124.139 0.796177 123.471V114.455C2.77366 114.327 4.6741 114.07 6.60023 114.07C45.8674 114.07 85.1347 113.813 124.376 114.147C197.543 114.764 270.71 115.74 343.903 116.536C348.217 116.587 352.532 116.253 356.821 114.764C238.351 110.037 119.882 110.294 1.56663 110.474C-0.10268 103.462 0.0770909 103.205 6.62591 103.205C86.239 103.154 165.878 103.128 245.491 103.077C247.314 103.077 249.138 103.077 250.961 102.255C244.669 102.255 238.377 102.255 232.059 102.255C192.099 102.255 152.112 102.255 112.152 102.178C77.122 102.101 42.0922 101.818 7.0625 101.946C1.66935 101.946 0.410952 100.226 0.333907 94.8058C0.256862 89.232 2.05458 88.1276 6.93409 88.1276C105.269 88.256 203.604 88.2046 301.939 88.2046C314.42 88.2046 326.876 88.4101 339.357 88.5128C340.359 88.5128 341.386 88.2817 342.516 86.9717C337.585 86.0727 332.654 84.3774 327.749 84.3774C221.17 84.2233 114.566 84.249 7.98703 84.249C5.8041 84.249 3.62116 84.249 1.54094 84.249C0.256862 78.4697 0.256862 78.367 6.00955 78.3413C45.9959 78.2899 86.0079 78.3156 125.994 78.2899C192.587 78.2899 259.179 78.2642 325.772 78.2385C328.109 78.2385 330.471 78.2385 332.808 78.2385C332.808 77.4423 332.808 76.646 332.808 75.8498C321.329 75.8498 309.875 75.8755 298.395 75.8498C200.985 75.5159 103.574 75.1563 6.16364 74.7967C5.2391 74.7967 4.10911 75.1306 3.46707 74.6939C2.33708 73.8977 0.719132 72.5877 0.796177 71.5859C0.84754 70.5328 2.56821 68.7862 3.64684 68.7091C8.0384 68.3495 12.4556 68.5293 16.8472 68.5293C124.71 68.555 232.599 68.4266 340.462 68.8632C350.786 68.9146 358.593 63.8802 367.247 60.053C376.467 55.969 385.533 51.0374 395.163 48.5202C402.739 46.5424 411.086 47.7239 419.073 47.3129C421.693 47.1845 424.415 46.8249 426.906 45.9516C436.896 42.3813 446.629 37.9633 456.748 35.0608C464.761 32.7491 473.184 31.8244 481.505 31.0795C484.715 30.797 488.696 31.7987 491.29 33.7509C494.474 36.1396 496.76 35.8828 499.688 34.0591C507.11 29.4613 514.763 28.7165 523.315 30.7713C531.944 32.8519 540.984 34.0077 549.844 34.0334C565.433 34.0848 581.047 33.3913 595.377 41.1997C600.129 43.794 604.006 43.3573 609.117 42.2528C619.595 39.9925 630.459 38.8366 641.142 38.9394C652.442 39.0421 663.716 41.097 674.99 42.3556C676.223 42.484 677.661 42.7152 678.612 43.4344C685.52 48.7513 693.301 48.9825 701.494 48.9825C815.983 48.8284 930.446 48.8541 1044.93 48.8541C1047.66 48.8541 1050.35 48.8541 1053.44 48.8541V56.9194C1050.94 56.9194 1048.61 56.9194 1046.27 56.9194C958.747 56.9194 871.25 56.8166 783.727 56.9708C757.352 57.0221 731.002 57.7927 704.627 58.1523C698.951 58.2294 693.25 58.1009 687.574 57.767C685.469 57.6386 683.183 57.0478 681.36 55.969C661.919 44.4875 641.091 41.3538 619.364 44.8985C614.998 45.6177 610.915 48.8798 606.986 51.474C604.854 52.861 603.673 54.2994 600.899 52.2703C584.822 40.5833 567.436 34.6242 547.635 39.5558C544.99 40.2237 541.908 38.7596 539.006 38.6055C537.465 38.5284 535.873 39.0935 534.307 39.376C535.591 40.3521 536.772 41.9446 538.159 42.1758C552.54 44.5132 566.948 46.5167 581.33 48.8284C588.315 49.9586 594.556 52.784 599.589 58.3835C600.745 59.6678 603.056 60.464 604.803 60.387C619.415 59.8219 634.003 58.666 648.615 58.3835C657.553 58.2294 666.516 59.3082 675.453 59.8476C676.352 59.8989 677.533 59.8219 678.124 60.3613C685.083 66.7313 693.481 64.1628 701.288 64.1628C816.317 64.3169 931.345 64.2655 1046.37 64.2655C1048.56 64.2655 1050.71 64.2655 1053.38 64.2655C1053.56 66.5002 1053.72 68.3239 1054 71.4575H683.568C683.465 72.2538 683.388 73.0757 683.286 73.872C685.135 74.2829 687.01 75.0792 688.859 75.0792C765.724 75.1306 842.589 75.0792 919.48 75.1306C962.599 75.1563 1005.69 75.4131 1048.81 75.5672C1050.25 75.5672 1051.66 75.7984 1053.46 75.9268V89.9512C1051.66 90.1054 1049.76 90.4136 1047.84 90.4136C940.153 90.3365 832.47 90.1824 724.761 90.1824C711.407 90.1824 698.027 90.953 684.672 91.2098C683.363 91.2098 682.053 90.2338 680.743 89.6944C676.275 87.845 671.832 84.5059 667.312 84.3774C645.534 83.761 623.73 83.7096 601.926 84.1719C597.612 84.2747 592.963 86.946 589.214 89.5916C585.952 91.8777 583.615 92.9308 580.61 89.8742C567.487 76.569 550.743 74.4627 533.793 73.5894C530.685 73.4353 527.218 75.67 524.291 77.4423C519.206 80.5246 513.992 81.9116 508.086 81.8089C501.871 81.6804 495.63 82.9904 489.441 82.6051C484.998 82.3226 480.709 79.8311 476.24 79.1119C464.452 77.1854 453.563 79.266 445.088 88.8981C442.829 91.4667 441.005 91.9033 437.975 90.3365C425.031 83.6839 411.805 83.3243 398.142 88.2046C393.006 90.054 387.356 90.2338 381.989 91.441C380.063 91.8777 378.316 93.1619 376.493 94.0609C376.621 94.6774 376.75 95.3195 376.878 95.936C378.676 95.936 380.473 96.0644 382.246 95.936C396.088 94.7031 409.905 92.9308 423.773 92.3914C428.832 92.1859 434.431 93.9839 439.053 96.3727C450.713 102.409 461.884 100.02 473.133 95.7048C493.344 87.9477 513.633 87.6395 533.947 94.8315C544.836 98.6844 555.468 103.359 566.28 107.469C567.59 107.957 569.413 107.674 570.8 107.135C584.976 101.664 599.384 98.2991 614.664 98.222C631.871 98.145 649.078 96.9121 666.259 95.8846C672.885 95.4994 677.738 98.5046 682.567 102.691C685.032 104.823 688.473 106.93 691.504 106.981C733.134 107.572 774.764 107.931 816.394 108.085C854.916 108.239 893.438 108.214 931.987 108.085C969.918 107.957 1007.88 107.597 1045.81 107.315C1048.17 107.315 1050.51 107.315 1053.44 107.315C1053.59 109.575 1053.72 111.322 1053.87 113.942H681.616C681.462 114.712 681.308 115.457 681.128 116.228C683.003 116.819 684.878 117.897 686.753 117.897C706.373 118.128 726.02 118.257 745.641 118.257C844.9 118.231 944.134 118.128 1043.39 118.077C1046.66 118.077 1049.94 118.077 1053.54 118.077V155.501H688.653C689.321 162.128 692.069 164.697 697.873 164.697C779.694 164.851 861.516 165.082 943.338 165.159C976.904 165.21 1010.5 164.979 1044.06 164.877C1046.99 164.877 1049.89 164.877 1053.33 164.877V172.942H698.027C699.439 178.002 701.905 179.697 706.142 179.723C768.318 180.005 830.518 180.493 892.694 180.699C944.596 180.879 996.525 180.699 1048.43 180.75C1050.76 180.75 1053.95 179.671 1053.87 184.218C1053.79 188.405 1050.76 187.326 1048.68 187.326C983.915 187.326 919.171 187.274 854.402 187.197C808.535 187.146 762.693 187.018 716.826 187.018C707.683 187.018 706.476 189.175 709.712 198.371C711.099 202.326 712.64 206.282 713.667 210.366C714.669 214.373 716.569 215.837 720.652 215.837C829.799 216.042 938.946 216.376 1048.12 216.685C1049.74 216.685 1051.38 216.685 1053.46 216.685V228.372C1049.48 228.372 1045.53 228.372 1041.54 228.372C934.58 228.269 827.642 228.192 720.678 228.14C719.368 228.14 718.084 228.834 716.775 229.194C717.211 230.76 717.185 232.892 718.187 233.766C719.728 235.101 721.936 236.309 723.863 236.334C761.64 236.642 799.444 236.745 837.221 236.951C904.173 237.336 971.125 237.773 1038.08 238.158C1043.16 238.184 1048.22 238.158 1053.59 238.158V248.997H810.744C810.641 249.511 810.512 250.025 810.41 250.564C814.827 252.465 819.424 254.057 823.661 256.343C830.467 260.016 837.016 264.229 843.745 268.056C845.542 269.084 847.648 270.111 849.626 270.111C916.038 270.316 982.451 270.393 1048.86 270.65C1050.51 270.65 1052.18 272.371 1053.82 273.296C1051.97 273.989 1050.12 275.299 1048.27 275.299C993.237 275.299 938.202 275.197 883.166 275.094C877.131 275.094 871.095 275.094 865.06 275.094C865.112 284.88 868.527 288.759 876.874 288.862C905.663 289.272 934.452 289.863 963.267 290.069C991.491 290.274 1019.72 290.069 1047.94 290.069C1049.4 290.069 1050.94 289.889 1052.31 290.351C1053.02 290.582 1053.69 291.969 1053.79 292.894C1053.85 293.459 1052.87 294.641 1052.25 294.718C1050.28 295 1048.25 294.949 1046.22 294.949C989.899 294.872 933.579 294.795 877.259 294.718C874.742 294.718 872.225 294.718 867.731 294.718C869.632 300.549 871.044 305.069 872.611 309.539C873.612 312.39 875.898 315.215 875.795 317.963C875.564 324.179 878.338 324.642 883.191 324.59C906.485 324.436 929.778 324.642 953.071 324.822C985.507 325.078 1017.97 325.412 1050.4 325.721C1051.3 325.721 1052.2 325.9 1053.64 326.029C1053.74 327.93 1053.82 329.728 1053.95 332.142H880.366C879.545 342.288 879.057 351.766 877.927 361.193C877.259 366.664 875.898 372.135 874.177 377.375C872.816 381.587 873.51 382.897 877.773 382.923C901.066 383.128 924.359 383.693 947.652 383.822C980.653 384.027 1013.68 383.95 1046.68 383.976C1048.84 383.976 1051 383.976 1053.56 383.976V406.502C1051.74 406.605 1049.81 406.81 1047.89 406.81C1009.19 406.81 970.458 406.785 931.755 406.759C918.581 406.759 905.432 406.759 892.257 406.733C886.248 406.733 880.212 406.708 874.203 406.348C872.816 406.271 871.173 405.064 870.222 403.882C864.213 396.433 855.892 395.2 847.468 394.43C846.133 394.301 843.77 395.277 843.513 396.202C843.102 397.795 843.565 400.029 844.438 401.493C847.366 406.451 852.451 407.401 857.33 407.992C865.497 408.994 871.455 413.72 877.156 419.345C878.594 420.758 880.829 421.991 882.729 422.042C926.748 422.736 970.766 423.326 1014.78 423.789C1026.88 423.917 1038.98 423.48 1051.1 423.352C1051.79 423.352 1052.51 423.609 1053.56 423.789V430.57C1051.77 430.672 1049.99 430.878 1048.22 430.878C1010.8 430.621 973.385 430.39 935.967 430.03C922.767 429.902 909.567 428.797 896.392 429.285C884.707 429.722 873.946 428.746 864.367 420.629C861.901 418.523 857.792 418.574 854.428 417.65C854.197 418.318 853.966 418.985 853.735 419.653C855.019 420.295 856.251 421.066 857.561 421.554C869.195 425.843 877.31 433.935 881.06 446.341C882.498 451.093 884.63 452.839 889.612 452.839C942.439 452.839 995.292 453.199 1048.12 453.456C1049.4 453.456 1050.76 453.276 1051.95 453.687C1052.74 453.969 1053.77 455.151 1053.74 455.87C1053.72 456.641 1052.64 457.822 1051.84 458.002C1050.25 458.362 1048.56 458.208 1046.91 458.182C994.085 457.976 941.232 457.771 888.405 457.565C886.607 457.565 884.835 457.565 883.14 457.565C882.036 466.093 882.678 466.864 890.1 466.889C942.747 466.966 995.395 467.069 1048.07 467.172C1049.69 467.172 1051.33 467.172 1053.46 467.172V482.301C1051.33 482.429 1049.02 482.712 1046.71 482.712C992.775 482.712 938.844 482.635 884.886 482.609C881.728 482.609 878.107 481.71 876.206 487.027H1053.59V498.637H871.378C871.352 499.587 871.327 500.563 871.301 501.514C881.214 502.31 891.204 501.745 901.169 501.848C911.262 501.95 921.354 501.848 931.447 501.848C941.72 501.848 951.993 501.848 962.265 501.848C972.358 501.848 982.451 501.848 992.544 501.848C1002.82 501.848 1013.09 501.848 1023.36 501.848C1033.38 501.848 1043.42 501.848 1053.69 501.848V514.202H868.142C867.603 515.41 867.192 515.923 867.166 516.437C866.653 524.006 869.991 527.782 877.182 527.764C934.041 527.687 990.926 527.61 1047.79 527.559C1049.58 527.559 1051.35 527.559 1053.56 527.559V537.602H860.335C860.129 541.327 859.95 544.512 859.719 548.775H1053.61V561.49H850.447C850.447 570.762 850.319 579.573 850.653 588.357C850.679 589.333 853.426 590.951 854.942 591.003C869.221 591.619 883.5 592.261 897.779 592.313C947.498 592.518 997.192 592.518 1046.91 592.595C1049.07 592.595 1051.23 592.595 1053.23 592.595C1055.21 598.76 1051.59 598.4 1048.45 598.4C1025.88 598.323 1003.33 598.143 980.756 598.143C936.353 598.092 891.949 598.169 847.571 598.066C844.284 598.066 842.358 598.58 842.229 602.561C842.05 609.291 841.536 615.995 841.202 622.725C840.997 626.834 843.822 626.655 846.441 626.68C863.134 626.834 879.827 627.117 896.52 627.143C946.42 627.22 996.319 627.194 1046.22 627.194C1048.56 627.194 1050.92 627.194 1053.59 627.194V636.98C1047.63 636.98 1041.98 637.032 1036.36 636.98C1018.02 636.8 999.683 636.466 981.347 636.364C934.58 636.055 887.814 635.85 841.048 635.542C828.13 635.465 826.204 632.691 829.543 619.488C831.238 612.81 833.164 606.183 834.756 599.479C836.271 593.058 834.088 587.997 828.233 585.352C817.447 580.472 810.307 571.893 804.4 561.567C797.877 550.188 788.811 542.765 775.2 544.152C769.165 544.768 765.107 542.354 761.589 536.832C747.284 514.588 728.228 499.305 703.189 491.804C682.156 485.511 661.533 477.6 640.937 469.843C635.004 467.608 629.739 463.396 624.192 460.083C614.022 453.995 603.801 448.113 591.808 446.752C582.845 445.724 574.498 443.104 567.051 436.94C548.123 421.246 526.628 419.499 503.54 424.2C491.726 426.614 482.43 433.267 472.517 439.174C471.284 439.894 470.513 441.435 468.767 443.464C471.284 443.464 472.568 443.772 473.646 443.413C490.622 437.993 507.444 440.793 524.06 444.979C533.973 447.497 544.04 450.348 553.131 454.971C561.221 459.081 568.951 464.963 575.269 471.718C585.233 482.352 597.663 488.337 609.862 494.63C628.019 504.005 647.871 508.038 667.568 512.353C685.982 516.386 703.805 522.473 719.702 533.004C727.561 538.219 734.315 545.642 740.658 552.962C747.695 561.079 754.064 568.579 765.826 569.273C779.746 570.095 787.63 581.268 795.489 591.902C799.161 596.859 803.527 601.251 807.328 606.106C811.617 611.577 815.572 617.305 819.758 622.853C825.716 630.739 831.623 638.675 837.838 646.355C838.762 647.486 841.202 647.563 842.948 647.588C910.645 648.076 978.316 648.487 1046.01 648.898C1048.35 648.898 1050.71 648.898 1053.64 648.898C1053.77 651.493 1053.74 653.547 1054 655.577C1054.54 659.969 1053.13 661.767 1048.58 661.587C1039.8 661.228 1030.96 661.484 1022.15 661.484C963.087 661.484 903.994 661.484 844.926 661.484C841.485 661.484 838.018 661.484 834.602 661.484C836.785 668.83 840.997 671.733 849.882 671.733C887.301 671.733 924.744 671.733 962.163 671.733C990.592 671.733 1019.05 671.733 1047.48 671.733C1049.45 671.733 1051.41 671.913 1053.64 672.041V678.668H832.65C832.47 679.31 832.265 679.952 832.085 680.595C833.729 681.262 835.372 682.495 837.016 682.495C907.64 682.495 978.265 682.367 1048.89 682.29C1051.1 682.29 1053.95 681.494 1053.92 685.603C1053.87 700.604 1053.92 715.604 1053.92 731.093C1051.48 731.221 1049.53 731.427 1047.55 731.427C988.666 731.35 929.778 731.195 870.89 731.298C864.726 731.298 858.563 732.711 852.399 733.456C852.476 734.303 852.528 735.151 852.605 735.999H1053.28C1053.59 737.591 1053.85 738.31 1053.87 739.055C1054.2 744.655 1051.75 747.454 1046.53 747.454C984.711 747.454 922.87 747.455 861.054 747.48C855.224 747.48 851.886 751.924 848.598 756.907C852.733 756.213 856.842 755.314 861.003 754.852C867.346 754.158 873.741 753.311 880.11 753.311C919.171 753.439 958.233 753.799 997.295 754.03C1014.53 754.133 1031.79 754.107 1049.04 754.004C1052.41 754.004 1054 754.801 1054 758.808C1053.87 784.647 1053.92 810.513 1053.92 836.353C1053.92 837.277 1053.72 838.202 1053.49 840.231C1048.07 840.231 1042.83 840.231 1037.56 840.231C1004 840.231 970.432 840.463 936.866 840.154C928.52 840.077 920.199 837.432 911.852 837.303C894.209 837.021 879.031 844.136 866.421 856.978C861.85 861.653 857.946 867.073 854.043 872.39C852.913 873.931 852.81 876.294 853.324 878.709C858.101 874.984 863.211 871.645 867.603 867.484C875.898 859.675 886.273 856.619 896.495 854.127C910.774 850.634 925.412 848.964 940.076 852.894C941.977 853.408 944.083 853.228 946.086 853.228C979.832 853.228 1013.6 853.305 1047.35 853.048C1052.59 853.023 1054.33 854.513 1054.08 860.138C1053.64 869.924 1053.95 879.762 1053.95 890.241C1051.46 890.37 1049.33 890.575 1047.22 890.575C1008.88 890.627 970.535 890.473 932.192 890.704C913.059 890.807 895.93 897.511 880.803 909.84C879.853 910.61 879.134 911.689 878.826 913.41C880.649 912.331 882.524 911.355 884.296 910.174C902.427 897.999 921.714 894.094 943.107 898.409C953.379 900.49 964.32 899.077 974.952 899.103C999.35 899.154 1023.75 899.103 1048.14 899.103C1049.76 899.103 1051.38 899.257 1053.49 899.386V927.717C1051.23 927.717 1049.09 927.717 1046.96 927.717C1008.98 927.717 970.997 927.383 933.04 927.845C916.578 928.051 902.941 935.346 893.541 950.141C893.053 950.911 892.745 951.836 892.36 952.683C892.848 953.171 893.31 953.685 893.798 954.173C894.286 953.094 894.568 951.861 895.262 950.988C908 935.037 924 929.232 943.415 933.804C945.701 934.344 948.14 934.472 950.503 934.472C982.965 934.524 1015.45 934.498 1047.91 934.524C1049.71 934.524 1051.48 934.678 1053.64 934.78V962.264C1051.56 962.367 1049.45 962.572 1047.37 962.572C1010.5 962.495 973.617 962.701 936.763 962.161C916.064 961.853 908.873 974.927 904.507 988.464C902.684 994.089 903.891 995.399 910.209 995.373C952.943 995.168 995.651 994.885 1038.39 994.654C1043.32 994.628 1048.22 994.654 1053.72 994.654C1053.82 996.889 1054 998.764 1054 1000.61C1054 1024.35 1053.85 1048.08 1054.13 1071.79C1054.18 1077.08 1052.56 1078.21 1047.86 1078.16C1026.78 1077.93 1005.67 1078.06 984.583 1078.13C954.869 1078.24 925.181 1078.42 895.467 1078.49C888.713 1078.49 882.293 1077.88 876.001 1074.05C862.056 1065.55 846.261 1063.23 830.57 1062.36C800.009 1060.69 769.961 1064.88 740.299 1072.94C716.158 1079.52 692.043 1086.66 669.957 1098.63C657.013 1105.64 644.301 1104.23 631.203 1104.67C629.894 1104.72 628.199 1104.18 627.3 1103.23C617.232 1092.67 604.494 1086.58 592.27 1079.65C565.073 1064.24 535.411 1055.2 506.853 1043.38C476.266 1030.72 444.446 1023.06 412.242 1016.51C381.655 1010.3 350.914 1009.68 320.276 1013.58C299.294 1016.26 278.594 1021.73 257.972 1026.89C242.666 1030.72 227.411 1035.19 212.695 1040.89C198.339 1046.46 184.266 1053.22 170.732 1060.79C150.649 1072.05 131.387 1084.79 115.953 1102.89C114.951 1104.08 112.768 1104.69 111.15 1104.69C85.6483 1104.77 60.1464 1104.77 34.6446 1104.61C24.9369 1104.56 15.2549 1103.92 5.54728 1103.82C2.05458 1103.79 0.616405 1102.64 0.69345 1098.81C0.898903 1091.1 0.898903 1083.37 0.69345 1075.67C0.590724 1071.94 2.13162 1071.12 5.29046 1071.17C38.4968 1071.48 71.6775 1071.74 104.884 1071.87C106.759 1071.87 108.916 1071.22 110.457 1070.12C135.471 1052.09 163.335 1040.5 191.688 1029.82C219.912 1019.18 249.061 1012.81 278.543 1007.91C304.456 1003.59 330.548 1000.72 356.795 1001.97C396.268 1003.85 435.175 1010.01 472.85 1022.88C503.797 1033.47 534.666 1044.36 565.304 1055.89C584.771 1063.21 603.775 1071.89 622.934 1080.08C625.579 1081.21 627.993 1082.96 631.589 1083.53C630.972 1082.24 630.587 1080.75 629.688 1079.73C614.562 1062.13 596.405 1048.65 577.298 1036.29C547.507 1017.05 515.713 1002.08 483.534 988.284C457.827 977.265 431.118 968.788 404.563 960.184C391.183 955.843 377.238 951.99 363.37 951.04C343.158 949.653 322.561 949.165 302.504 951.682C269.452 955.843 239.122 970.124 209.357 985.15C190.07 994.885 171.22 1005.62 152.061 1015.64C136.909 1023.58 122.116 1032.18 110.688 1045.51C105.86 1051.14 100.98 1052.93 94.1233 1052.78C65.1544 1052.16 36.1598 1051.96 7.1909 1051.75C2.49116 1051.73 0.308226 1050.47 0.642087 1044.84C1.15572 1036.39 0.975948 1027.87 0.69345 1019.39C0.53936 1015.13 2.18299 1014.23 5.82978 1014.25C35.5434 1014.35 65.2828 1014.12 94.9964 1014.46C101.391 1014.53 106.836 1013.07 112.075 1009.53C145.384 987.051 180.773 969.405 218.705 957.101C246.107 948.214 273.664 940.38 302.247 937.837C322.356 936.039 342.593 936.527 362.445 941.202C383.812 946.211 405.282 950.963 426.367 957.127C473.21 970.818 518.846 987.924 561.709 1012.53C577.118 1021.39 593.04 1029.25 608.758 1037.55C609.348 1037.86 610.119 1037.81 612.353 1038.19C611.043 1035.83 610.607 1034.11 609.528 1033.23C596.405 1022.47 583.718 1011.02 569.901 1001.36C543.988 983.224 517.639 965.732 491.007 948.779C464.016 931.595 435.663 916.98 406.155 905.242C388.229 898.101 369.662 892.527 350.118 892.784C331.601 893.015 313.059 892.553 294.62 893.812C283.577 894.582 272.379 897.048 261.824 900.593C242.846 906.989 223.918 913.872 205.71 922.323C190.198 929.515 175.303 938.531 160.87 947.983C145.512 958.052 130.36 968.737 116.441 980.835C107.529 988.592 98.5919 990.236 87.8312 989.928C60.6858 989.157 33.5403 989.132 6.39477 989.003C2.28571 989.003 0.359589 988.078 0.667769 983.224C1.07867 976.7 1.07867 970.098 0.667769 963.549C0.359589 958.617 2.10594 957.358 6.57454 957.384C36.6734 957.564 66.7466 957.641 96.8455 957.384C100.775 957.358 104.987 955.817 108.556 953.942C128.511 943.437 147.978 931.878 168.266 922.143C187.373 912.973 207.097 905.011 226.923 897.742C249.626 889.42 273.176 885.053 297.162 882.433C320.507 879.89 343.723 879.659 366.657 884.077C383.863 887.39 400.762 892.99 417.506 898.461C447.169 908.17 474.956 922.503 502.333 937.734C521.44 948.368 540.188 959.721 559.269 970.407C566.177 974.285 573.574 977.188 580.816 980.45C581.484 980.758 582.46 980.373 583.358 980.296C583.384 979.371 583.667 978.575 583.41 978.318C577.349 972.179 571.802 965.321 565.047 960.184C545.041 944.978 525.318 929.027 504.028 916.03C480.195 901.492 455.104 888.983 429.834 877.296C413.706 869.821 396.37 865.018 379.369 859.804C372.615 857.723 365.296 857.056 358.208 856.876C341.155 856.49 324.077 856.953 307.024 856.722C283.371 856.413 260.489 861.062 237.735 867.407C208.689 875.472 180.953 887.108 155.091 902.853C139.015 912.639 124.684 925.559 109.43 936.861C107.144 938.556 104.036 939.815 101.288 939.815C78.1749 939.969 55.0615 939.789 31.948 939.712C23.319 939.686 14.6899 939.481 6.08659 939.712C2.13162 939.815 0.590724 938.762 0.69345 934.241C0.975948 920.551 0.796177 906.86 0.821858 893.144C0.821858 891.654 1.05299 890.164 1.20708 888.238C3.23593 888.135 5.03365 887.955 6.80568 887.955C39.6525 887.955 72.4993 887.57 105.32 888.341C115.079 888.572 123.631 885.695 132.363 882.51C150.854 875.78 169.216 868.563 187.784 862.064C213.363 853.1 239.584 846.935 266.396 843.365C286.71 840.668 306.896 836.456 327.492 837.098C354.561 837.945 381.167 841.516 406.489 852.432C444.01 868.614 480.298 887.339 515.482 908.555C528.965 916.698 542.473 924.789 556.033 932.854C557.574 933.779 559.346 934.755 561.041 934.755C562.428 934.755 564.149 933.625 565.022 932.443C565.407 931.904 564.405 929.695 563.532 928.744C540.316 903.701 515.687 880.301 486.795 862.681C466.558 850.326 446.116 838.099 424.826 828.031C408.261 820.171 390.412 815.136 372.846 809.999C365.244 807.765 356.846 807.765 348.834 807.893C325.027 808.33 301.117 808.201 277.464 810.513C260.463 812.182 243.359 816.01 227.051 821.455C206.891 828.185 186.757 835.993 168.086 846.319C151.085 855.72 136.113 869.179 120.113 880.635C117.648 882.407 114.36 883.846 111.433 883.871C77.122 884.051 42.8113 883.948 8.52635 883.897C6.215 883.897 3.87797 883.897 0.873222 883.897C0.873222 881.046 0.873222 878.991 0.873222 876.936C0.873222 832.962 0.873222 788.963 0.873222 744.989C0.873222 737.36 0.873222 737.283 8.0384 737.334C59.2219 737.54 110.38 737.797 161.563 737.848C164.645 737.848 167.804 736.358 170.783 735.177C177.948 732.3 184.934 728.909 192.176 726.289C201.832 722.771 211.54 719.149 221.453 716.657C243.873 711.006 266.319 705.484 288.944 700.938C305.791 697.547 322.87 695.133 339.948 693.335C364.243 690.766 388.615 691.819 411.446 701.297C429.012 708.592 444.395 720.356 457.775 734.714C461.473 738.696 465.865 741.932 469.769 745.734C473.004 748.893 475.162 745.708 477.345 744.269C477.781 743.987 476.908 739.98 475.701 738.773C470.847 733.995 465.351 729.937 460.626 725.031C457.647 721.923 456.132 717.197 453.075 714.191C434.302 695.518 413.731 679.464 389 670.68C375.466 665.877 361.264 665.62 347.164 668.522C329.264 672.195 311.313 675.766 293.49 679.824C272.277 684.627 250.242 686.656 230.416 696.545C215.392 704.02 201.241 713.421 186.757 722.051C182.288 724.697 178.051 727.779 173.505 730.194C172.581 730.682 169.679 729.423 169.319 728.344C165.184 716.221 151.419 713.909 140.992 717.248C139.477 717.736 137.859 718.224 136.292 718.224C93.3528 718.224 50.4388 718.198 7.49908 718.147C1.07868 718.147 -0.950175 715.45 1.15572 708.977C1.56663 707.744 4.16047 706.64 5.77841 706.64C19.364 706.46 32.9239 706.511 46.5095 706.511C74.5795 706.511 102.65 706.64 130.72 706.46C134.033 706.46 137.705 705.433 140.581 703.737C151.034 697.547 161.358 697.599 172.144 702.684C175.739 704.38 179.72 705.587 183.598 705.998C186.834 706.332 188.58 704.431 187.014 700.398C184.035 692.693 179.669 685.911 171.733 684.37C162.359 682.547 152.883 683.728 146.257 692.384C142.867 696.828 139.349 697.881 133.801 697.676C114.746 696.982 95.6385 697.521 76.5827 697.444C53.1097 697.342 29.611 697.11 6.13796 696.905C4.69979 696.905 3.26161 696.7 1.38685 696.571V686.117C3.67252 686.117 5.8041 686.117 7.93567 686.117C49.7711 686.117 91.6064 686.168 133.416 686.04C135.984 686.04 139.272 685.501 140.992 683.831C151.907 673.274 177.306 673.248 189.274 683.831C191.945 686.194 193.794 685.989 196.49 684.242C202.217 680.543 208.15 677.153 213.979 673.659C209.126 661.382 199.777 655.294 187.707 654.678C175.842 654.087 165.672 657.709 156.709 665.414C153.499 668.163 150.315 668.882 146.231 668.856C100.544 668.497 54.8817 668.394 9.19407 668.24C-0.513587 668.214 1.00163 668.805 0.950267 659.584C0.873222 646.689 0.950267 633.795 0.950267 620.259C3.31298 620.13 5.2391 619.925 7.1909 619.925C56.1658 619.925 105.166 619.796 154.141 620.13C163.001 620.182 167.881 614.762 174.147 608.032C170.783 608.032 168.703 608.032 166.597 608.032C113.205 608.032 59.8126 608.032 6.44614 607.981C4.72547 607.981 2.90207 607.519 1.33549 606.774C0.898903 606.568 0.744813 604 1.23276 603.64C2.41412 602.741 4.03206 602.073 5.49592 602.073C22.7283 602.022 39.9864 602.279 57.2187 602.125C75.5297 601.971 93.8407 601.2 112.152 601.174C129.872 601.174 147.592 601.919 165.313 601.868C168.369 601.868 172.427 600.301 174.276 597.938C186.32 582.526 201.755 579.316 218.936 584.222C235.501 588.974 251.706 595.01 268.065 600.532C269.067 600.866 270.068 601.56 270.839 602.33C272.611 604.128 274.511 607.853 275.872 607.621C279.057 607.082 281.984 604.668 285.888 602.536C279.956 596.602 274.819 590.772 266.986 591.028C253.991 591.465 242.717 587.407 231.828 580.189C217.986 570.994 193.203 573.614 180.285 584.247C177.717 586.379 173.788 587.638 170.475 587.638C135.265 587.818 100.03 587.638 64.8205 587.587C45.5593 587.587 26.298 587.638 7.03681 587.638C5.2391 587.638 3.44139 587.458 1.72072 587.355C1.38685 586.456 1.00163 585.943 1.00163 585.429C0.924585 569.273 -0.719039 571.97 13.0206 571.918C64.5637 571.815 116.107 571.867 167.675 571.533C129.333 571.533 90.9901 571.533 52.6474 571.533C37.4182 571.533 22.189 571.533 6.95977 571.533C0.487997 571.533 0.308226 571.25 1.7464 563.057H165.57C165.698 562.235 165.852 561.438 165.98 560.616C164.234 560.18 162.488 559.332 160.767 559.332C109.404 559.281 58.0405 559.332 6.65159 559.332C5.03365 559.332 3.4157 559.152 1.33549 559.05V550.548C3.56979 550.445 5.70137 550.239 7.85863 550.239C67.2859 550.239 126.739 550.342 186.166 549.983C190.994 549.957 195.771 546.566 200.599 544.717C200.522 544.229 200.42 543.741 200.342 543.227C199.444 542.842 198.57 542.123 197.672 542.097C153.653 541.866 109.635 541.635 65.6166 541.558C45.9959 541.532 26.4008 541.737 6.78 542.123C2.36276 542.2 0.436634 541.147 0.796177 536.112C1.20708 530.359 1.07867 524.528 0.821858 518.749C0.642087 514.896 2.0289 513.74 5.57296 513.766C17.8745 513.894 30.1503 513.689 42.4518 513.714C94.1746 513.791 145.923 513.869 197.646 514.048C205.941 514.074 213.363 513.047 220.682 507.447C228.644 501.36 238.839 503.183 248.419 503.363C263.34 503.646 275.795 510.889 288.662 517.439C297.368 521.882 306.741 524.965 315.114 529.999C321.123 533.595 326.26 539.066 331.165 544.332C333.373 546.721 335.068 548.056 338.381 548.339C345.88 548.955 352.301 546.618 358.695 542.842C374.772 533.39 392.364 529.1 410.547 527.251C417.096 526.583 423.67 525.735 430.245 525.581C451.92 525.067 469.229 535.701 486.385 548.39C508.83 565.009 516.483 590.001 525.061 615.096C528.554 625.319 533.639 635.079 538.904 644.48C545.118 655.551 552.386 665.979 559.115 676.742C569.876 693.951 584.643 706.743 600.18 718.892C612.79 728.755 624.475 739.903 637.007 749.895C647.922 758.576 658.888 767.438 670.804 774.399C681.77 780.795 694.046 784.647 705.68 789.759C711.921 792.507 718.315 795.024 724.094 798.595C736.164 806.069 748.055 804.657 757.891 794.228C761.101 790.838 765.082 788.269 769.704 784.493C765.493 784.493 762.308 783.903 759.406 784.596C751.676 786.497 745.641 782.901 739.323 779.176C733.981 776.043 728.331 773.192 722.476 771.445C709.969 767.695 698.643 761.941 688.345 753.542C679.254 746.093 669.341 739.774 660.352 732.197C641.579 716.349 620.443 704.457 600.257 690.92C593.323 686.271 587.647 679.413 581.663 673.3C573.933 665.389 566.819 656.758 558.807 649.181C540.727 632.023 526.653 612.373 521.645 586.713C520.438 580.523 519.822 574.179 518.384 568.065C515.533 556.07 509.37 546.027 499.996 538.707C477.165 520.906 451.663 511.505 423.002 514.331C412.909 515.333 402.585 517.053 393.109 520.598C383.761 524.117 374.721 522.833 365.475 522.73C355.768 522.627 346.009 522.987 336.352 522.114C333.399 521.831 329.778 518.697 328.109 515.821C314.009 491.573 291.898 482.943 266.652 480.4C254.556 479.167 242.897 480.785 232.445 488.208C230.75 489.416 228.31 489.929 226.204 489.929C153.551 489.955 80.9229 489.878 8.26953 489.827C3.30442 489.827 0.821858 487.224 0.821858 482.018C0.821858 471.949 5.57296 466.915 15.0752 466.915C44.2495 466.915 73.4238 466.864 102.573 466.864C142.739 466.864 182.905 466.581 223.045 467.223C230.904 467.352 237.042 463.37 244.053 461.649C259.205 457.951 274.049 459.543 288.585 463.961C298.857 467.095 309.233 470.896 318.504 476.419C325.592 480.631 332.68 486.976 336.661 494.245C341.566 503.209 347.909 505.829 356.487 506.009C368.018 506.266 379.549 506.522 391.106 506.676C392.313 506.676 393.931 506.343 394.65 505.495C401.943 496.89 412.421 496.71 421.872 494.912C432.196 492.935 442.88 492.729 453.409 492.267C470.77 491.496 485.717 499.022 500.201 508.064C512.76 515.898 522.493 526.609 530.326 539.426C530.685 540.017 531.379 540.402 531.995 540.736C532.252 540.89 532.689 540.684 534.794 540.428L534.538 540.582ZM478.218 424.251C478.629 425.073 479.014 425.895 479.425 426.717C482.507 425.484 485.563 424.2 488.67 423.044C516.381 412.667 543.244 412.872 568.591 430.39C577.143 436.298 586.492 439.817 596.507 441.743C610.016 444.363 622.009 450.296 633.669 458.079C643.916 464.911 655.318 470.203 666.772 474.518C682.412 480.4 698.643 484.433 714.489 489.75C727.612 494.142 739.323 501.205 748.183 512.61C756.992 523.937 766.391 534.52 780.645 537.808C790.686 540.119 798.057 546.155 804.837 553.758C807.071 556.276 810.667 557.406 813.492 559.409C816.753 561.721 820.323 563.827 822.865 566.832C827.539 572.381 831.52 578.597 835.937 584.376C836.554 585.198 838.095 585.66 839.096 585.532C839.61 585.455 840.226 583.682 840.252 582.655C840.277 578.031 840.046 573.408 840.021 568.785C840.021 562.286 837.735 557.303 833.241 552.5C827.925 546.823 823.867 539.862 819.27 533.441C817.96 531.617 816.727 529.691 815.341 527.919C809.87 520.958 802.346 518.312 794.282 516.565C784.214 514.382 775.406 511.171 771.22 499.151C769.114 493.14 763.952 486.95 758.61 483.765C742.585 474.21 726.046 465.4 709.198 457.565C695.022 450.99 679.921 446.623 665.591 440.382C652.802 434.808 640.706 427.436 627.89 421.888C605.419 412.153 581.766 406.81 557.651 404.781C543.911 403.625 529.787 401.981 516.227 406.785C506.545 410.227 496.914 413.9 487.438 417.932C484.099 419.345 481.274 422.068 478.218 424.2V424.251ZM276.925 338.949C277.31 339.411 277.696 339.873 278.081 340.336C279.416 339.873 280.752 339.437 282.087 338.974C283.474 338.486 284.835 337.87 286.273 337.536C310.286 332.091 334.195 331.269 357.771 339.694C371.844 344.728 385.404 350.764 395.369 363.299C400.094 369.232 409.442 367.46 412.37 360.525C412.884 359.317 413.783 358.264 414.399 357.108C418.868 348.709 423.901 340.593 427.599 331.834C435.638 312.826 447.759 297.672 463.99 285.908C466.661 283.981 468.844 281.233 470.976 278.613C482.455 264.409 493.37 249.665 505.415 236.026C512.272 228.243 520.259 221.077 530.711 218.637C541.728 216.068 552.72 213.14 563.866 211.342C576.63 209.287 589.548 208.157 602.414 206.898C605.059 206.642 607.936 207.207 610.504 208.054C625.528 213.012 640.474 218.123 655.447 223.234C669.495 228.038 683.542 232.867 697.642 237.721C701.879 211.727 696.614 191.358 674.503 177.488C668.955 174.021 662.638 170.065 656.525 169.782C633.592 168.729 611.737 174.329 591.936 186.709C584.309 191.487 577.811 198.268 570.672 203.945C568.694 205.511 566.28 207.438 564.046 207.463C556.932 207.618 549.664 207.72 542.704 206.462C529.119 203.996 516.766 206.179 505.184 214.142C489.441 224.981 477.576 239.853 466.302 255.265C454.385 271.549 442.777 288.142 431.477 304.889C426.855 311.722 423.208 319.299 419.407 326.697C414.296 336.637 409.93 347.014 404.383 356.672C400.582 363.273 397.552 362.734 393.674 356.184C382.785 337.767 367.581 325.849 347.087 321.919C322.947 317.27 300.064 319.864 279.622 335.481C278.517 336.329 277.824 337.793 276.925 338.949ZM576.091 914.977C576.604 914.643 577.118 914.335 577.631 914.001C577.169 912.742 576.989 911.175 576.193 910.251C568.386 901.312 561.015 891.885 552.489 883.769C534.332 866.431 515.482 849.786 494.474 836.353C475.418 824.178 456.08 812.362 436.305 801.523C423.388 794.434 409.519 789.142 395.934 783.466C366.862 771.265 336.738 768.183 305.843 772.909C291.538 775.092 277.156 776.916 263.031 779.973C245.696 783.723 228.156 787.319 211.463 793.304C183.958 803.167 158.969 818.707 134.931 835.762C133.519 836.764 132.697 838.742 131.618 840.257C138.835 837.714 144.562 833.296 150.982 831.01C172.786 823.253 194.59 815.342 216.804 809.126C246.698 800.752 277.259 795.461 308.257 794.665C324.513 794.254 340.924 794.434 357.052 796.334C383.067 799.391 407.927 807.996 431.22 820.351C460.446 835.865 489.261 852.355 517.639 869.513C532.483 878.503 546.171 889.676 560.091 900.285C565.792 904.625 570.774 910.019 576.091 914.925V914.977ZM141.069 807.02C141.429 807.379 141.763 807.739 142.122 808.098C144.048 806.84 145.949 805.53 147.926 804.348C167.727 792.559 189.556 786.574 211.18 780.23C225.947 775.889 241.074 772.832 256.072 769.364C278.081 764.279 300.218 760.272 322.87 759.938C343.697 759.629 364.371 760.554 384.018 768.594C400.197 775.221 416.043 782.772 432.042 789.862C466.892 805.35 499.148 825.899 531.404 846.422C532.072 846.858 532.92 846.987 533.69 847.244C533.998 846.91 534.332 846.576 534.64 846.242C533.741 844.906 532.971 843.442 531.892 842.286C511.835 820.453 489.107 801.96 464.966 785.572C447.169 773.5 428.755 762.147 409.751 752.36C397.244 745.939 383.453 740.262 369.79 738.85C347.678 736.589 325.13 735.459 303.018 740.725C274.871 747.455 246.415 753.157 218.705 761.556C191.482 769.827 166.674 784.211 144.305 802.807C142.995 803.912 142.097 805.556 141.018 806.943L141.069 807.02ZM496.76 391.399C496.888 391.913 497.017 392.426 497.12 392.94C498.583 393.069 500.15 393.557 501.537 393.248C513.171 390.731 524.702 387.623 536.387 385.594C545.658 384.001 555.16 383.051 564.559 382.948C573.471 382.846 582.46 383.847 591.32 385.08C599.974 386.287 608.835 387.366 617.027 390.346C628.712 394.584 639.755 400.749 651.261 405.629C676.557 416.365 702.444 425.073 729.153 431.263C749.904 436.066 768.061 445.519 780.08 465.348C785.088 473.593 793.254 477.78 802.243 480.272C809.819 482.352 817.934 484.099 823.302 490.546C828.156 496.376 832.188 503.106 835.886 509.836C840.021 517.336 846.98 520.161 853.581 524.271C855.07 518.415 853.349 512.019 849.78 505.803C844.207 496.094 839.07 486.128 833.6 476.342C825.331 461.495 813.26 453.173 796.593 452.505C794.102 452.403 791.148 451.247 789.299 449.5C786.5 446.854 784.651 443.13 782.134 440.099C775.406 432.085 769.576 422.658 761.486 416.571C745.589 404.627 726.739 400.055 707.478 397.409C696.255 395.868 684.904 394.61 673.912 391.81C651.543 386.082 629.611 378.453 607.114 373.419C588.264 369.181 568.643 369.361 549.767 373.368C533.022 376.938 516.843 383.513 500.458 388.856C499.097 389.293 497.967 390.526 496.734 391.399H496.76ZM846.749 559.281C847.699 558.998 848.675 558.69 849.626 558.408C849.882 554.58 849.857 550.702 850.422 546.9C852.04 536.164 847.725 528.689 840.098 521.831C835.449 517.644 832.393 511.454 828.798 506.034C826.846 503.08 825.639 499.536 823.482 496.813C816.65 488.157 806.968 485.691 797.03 484.844C786.295 483.919 779.977 477.729 774.892 468.379C771.785 462.703 767.47 457.437 762.796 453.07C751.445 442.488 736.806 439.38 722.707 435.424C700.441 429.183 677.918 423.917 656.757 413.951C648.744 410.175 640.603 406.631 632.975 402.11C623.191 396.305 612.815 393.017 601.798 391.938C594.71 391.245 587.442 392.144 580.482 390.885C566.845 388.419 553.414 386.673 539.982 391.861C537.774 392.709 535.334 393.531 533.048 393.454C517.896 392.991 504.182 399.772 489.877 403.266C481.171 405.372 473.415 411.922 465.326 416.622C464.581 417.059 464.401 418.574 463.374 420.989C473.569 416.828 482.507 413.617 491.084 409.584C509.139 401.108 527.912 396.536 547.61 398.796C564.842 400.774 581.997 403.625 599.05 406.887C607.448 408.506 615.897 411.049 623.679 414.67C646.278 425.176 668.39 436.657 691.838 445.236C711.972 452.608 731.182 462.754 750.623 472.155C760.459 476.907 768.086 484.561 773.967 494.322C776.433 498.431 779.9 502.541 783.881 504.827C791.508 509.194 799.572 513.175 807.893 515.666C819.424 519.134 827.411 525.684 832.676 537.191C836.297 545.102 841.947 551.986 846.698 559.332L846.749 559.281ZM155.477 769.108L156.478 770.649C157.762 770.263 159.149 770.084 160.305 769.441C179.694 758.679 200.471 751.616 221.504 745.965C248.239 738.798 275.359 733.07 302.453 727.394C319.659 723.772 336.866 721.743 354.766 723.798C381.193 726.829 405.539 735.408 428.395 748.893C441.93 756.881 455.079 765.717 467.868 774.964C484.767 787.165 501.152 800.136 517.716 812.85C521.389 815.65 524.856 818.707 528.425 821.661L529.787 820.222C528.888 818.809 528.092 817.268 527.039 815.984C524.625 813.082 522.133 810.282 519.565 807.508C508.984 796.078 498.969 784.005 487.669 773.448C473.313 760.04 458.058 747.686 442.88 735.254C435.561 729.243 427.908 723.49 419.792 718.815C405.154 710.339 389 706.306 372.512 704.996C357.951 703.84 343.184 703.66 328.622 704.713C315.576 705.664 302.709 709.106 289.689 711.135C260.54 715.681 232.804 725.519 205.71 737.052C191.071 743.293 177.666 752.771 163.875 761.145C160.664 763.097 158.199 766.411 155.4 769.082L155.477 769.108ZM751.06 809.126C750.109 809.075 749.185 808.741 748.491 809.023C738.963 813.159 730.36 810.256 721.628 805.89C707.786 798.98 693.661 792.764 679.742 786.06C674.117 783.363 668.519 780.538 663.28 777.096C654.317 771.214 645.611 764.895 636.905 758.628C631.049 754.415 625.014 750.408 619.672 745.579C612.199 738.824 606.061 730.245 597.997 724.517C584.848 715.219 572.367 705.433 562.479 692.307C555.34 682.829 547.995 673.505 541.035 663.899C535.847 656.733 529.812 649.823 526.474 641.732C520.387 626.988 516.355 611.294 510.782 596.294C507.084 586.328 503.643 575.72 497.582 567.398C487.874 554.092 473.569 546.31 459.316 539.041C447.759 533.158 435.407 533.955 423.182 534.366C416.12 534.623 408.954 535.342 402.072 536.934C395.138 538.527 388.486 541.404 381.758 543.869C380.371 544.383 379.215 545.693 377.957 546.618C378.162 547.106 378.368 547.568 378.599 548.056C383.607 547.414 388.743 545.719 393.623 546.361C411.702 548.724 430.219 548.21 447.759 554.272C455.002 556.789 462.912 559.255 468.639 564.161C484.099 577.441 496.477 593.905 504.773 613.041C512.708 631.304 521.337 649.053 532.637 665.209C541.703 678.206 550.589 691.485 561.041 703.172C573.163 716.709 586.671 728.935 600 741.239C624.834 764.15 651.466 784.442 680.717 800.727C682.823 801.883 684.801 803.295 686.984 804.297C700.21 810.282 713.307 816.703 726.816 821.943C734.084 824.743 747.875 816.78 751.085 809.152L751.06 809.126ZM819.552 734.92C819.861 734.406 820.143 733.867 820.451 733.353C817.96 731.889 815.623 729.783 812.952 729.115C804.888 727.111 796.901 727.805 789.454 731.889C785.165 734.252 781.826 734.175 779.54 729.012C779.052 727.908 777.922 726.726 776.844 726.341C771.348 724.389 765.878 722.231 760.202 721.075C755.734 720.151 754.501 717.608 753.422 713.447C752.266 709.003 750.777 703.403 747.618 700.989C738.835 694.285 729.102 688.942 719.728 683.112C712.203 678.437 704.524 674.07 697.154 669.164C689.167 663.847 681.95 656.912 673.501 652.726C659.299 645.713 644.378 640.319 629.791 634.18C627.248 633.102 624.475 632.228 622.369 630.482C610.298 620.516 597.381 611.372 586.723 599.916C576.45 588.896 567.667 576.002 559.783 562.903C549.073 545.102 542.191 525.119 528.811 508.654C513.042 489.287 493.344 478.833 470.282 475.725C458.494 474.158 446.218 476.727 434.174 477.575C432.967 477.652 431.862 478.91 430.681 479.629C432.171 480.862 433.172 480.888 434.174 480.862C443.984 480.708 454.077 479.064 463.579 480.837C474.571 482.891 485.537 486.898 495.656 491.959C521.337 504.75 538.904 525.273 546.454 554.734C549.69 567.372 554.21 579.444 561.324 590.489C570.646 605.001 582.1 616.663 596.995 624.728C606.241 629.737 615.127 635.439 624.192 640.807C628.815 643.556 633.284 646.689 638.137 648.847C650.002 654.164 661.225 660.406 670.958 669.498C676.711 674.867 682.541 680.184 688.73 684.935C692.814 688.069 697.539 690.381 702.136 692.718C708.017 695.698 713.924 698.703 720.036 701.066C728.819 704.457 737.833 707.282 744.434 714.782C750.058 721.178 755.99 726.752 764.106 729.757C768.6 731.427 772.76 734.689 776.407 738.028C779.438 740.828 782.109 741.521 785.832 740.288C789.993 738.901 794.282 737.771 798.596 737.129C805.582 736.101 812.618 735.588 819.629 734.869L819.552 734.92ZM861.799 331.731C861.645 328.084 861.953 324.308 861.208 320.763C858.871 309.359 854.762 298.828 844.001 293.434C827.129 284.957 809.305 282.569 791.02 286.73C783.393 288.476 776.048 291.456 768.6 294.024C765.903 294.949 765.133 296.85 767.316 299.213C781.621 314.933 795.874 330.729 810.333 346.295C812.567 348.684 815.623 350.405 818.576 351.869C828.515 356.749 838.634 361.193 848.496 366.176C851.732 367.819 853.118 367.614 854.762 363.992C859.487 353.744 862.312 343.161 861.799 331.68V331.731ZM218.14 687.119C217.498 686.4 216.881 685.68 216.239 684.961C211.719 688.531 207.174 692.102 202.705 695.775C202.423 696.006 202.68 697.676 202.911 697.753C203.835 698.009 204.965 698.215 205.838 697.855C211.976 695.415 218.037 692.667 224.201 690.304C244.566 682.495 265.497 677.153 286.967 674.173C293.644 673.248 300.347 672.349 306.947 670.962C321.457 667.957 335.762 663.359 350.4 661.793C367.479 659.969 384.506 661.073 400.762 669.267C421.949 679.952 440.979 693.797 458.443 710.056C467.457 718.455 475.573 727.908 484.099 736.898C485.768 738.67 487.771 740.494 489.312 737.437C489.903 736.256 488.542 733.687 487.643 732.043C486.847 730.605 485.357 729.629 484.304 728.319C477.242 719.483 470.667 710.159 463.066 701.914C453.024 691.023 442.392 680.672 431.554 670.654C415.966 656.244 397.963 646.304 377.161 643.941C365.398 642.605 353.354 643.453 341.463 643.864C335.12 644.095 328.597 644.712 322.51 646.458C303.994 651.749 285.554 657.323 267.269 663.488C253.375 668.163 239.789 673.814 226.127 679.259C224.252 680.004 222.788 682.033 221.247 683.574C220.143 684.679 219.167 685.937 218.14 687.144V687.119ZM875.461 1053.14C873.869 1051.29 873.587 1050.73 873.15 1050.52C858.126 1043.3 842.717 1037.52 826.101 1035.7C798.648 1032.69 771.194 1032 743.894 1036.37C732.209 1038.24 720.832 1042.33 709.378 1045.72C688.473 1051.88 668.519 1060.38 650.31 1072.97C645.893 1076.03 641.425 1079.13 637.521 1082.86C634.208 1086.04 635.903 1090.51 640.397 1091.13C641.758 1091.31 643.274 1090.8 644.635 1090.33C659.633 1085.35 674.502 1079.83 689.68 1075.41C707.298 1070.3 725.121 1065.85 742.97 1061.64C767.984 1055.73 793.049 1049.49 818.91 1050.24C835.552 1050.73 852.142 1052.55 868.758 1053.71C870.556 1053.83 872.405 1053.42 875.461 1053.14ZM505.363 738.233C505.158 735.511 505.44 734.098 504.901 733.25C501.152 727.343 497.428 721.383 493.344 715.733C488.08 708.412 482.455 701.349 477.036 694.157C467.406 681.365 458.315 668.111 448.068 655.885C433.737 638.83 415.452 626.988 394.188 623.983C375.645 621.363 356.513 622.442 337.714 623.238C328.365 623.649 318.889 626.244 309.952 629.377C293.13 635.285 276.822 642.837 259.975 648.641C246.646 653.239 233.677 658.197 222.249 666.878C221.145 667.726 220.605 669.344 219.783 670.603C221.222 670.474 222.737 670.628 224.098 670.217C237.889 665.851 251.577 661.073 265.445 657.015C276.899 653.65 288.559 651.21 300.09 648.128C313.855 644.455 327.39 639.343 341.335 636.954C375.26 631.15 405.308 642.015 432.273 663.385C437.076 667.187 441.544 671.553 445.833 676.022C460.652 691.434 475.341 706.999 490.083 722.488C494.757 727.394 499.508 732.223 505.338 738.208L505.363 738.233ZM260.206 636.595C260.463 637.006 260.72 637.417 260.951 637.828C262.133 637.674 263.34 637.699 264.47 637.365C273.612 634.643 282.883 632.331 291.82 628.992C318.966 618.795 346.831 613.092 375.697 614.017C390.489 614.479 404.691 618.718 417.815 625.704C442.084 638.624 459.727 659.404 476.138 681.648C490.494 701.117 505.389 720.099 520.13 739.235C520.875 740.211 522.39 740.571 523.546 741.213C523.905 740.802 524.291 740.365 524.65 739.954C523.546 737.848 522.467 735.69 521.312 733.61C512.374 717.479 502.949 701.657 494.628 685.192C484.458 665.08 471.874 647.177 455.335 632.382C444.601 622.776 432.556 615.558 419.407 610.524C396.961 601.919 373.565 603.614 350.349 604.77C343.107 605.13 335.813 606.311 328.776 608.084C306.099 613.812 284.501 622.776 263.519 633.384C262.235 634.026 261.336 635.542 260.258 636.646L260.206 636.595ZM699.748 194.235C700.364 193.876 700.955 193.49 701.571 193.131C700.518 184.115 695.972 177.129 689.192 171.529C685.314 168.344 681.257 165.365 677.353 162.231C666.156 153.292 652.956 147.256 639.704 145.972C608.552 142.89 579.121 150.647 554.081 171.375C544.399 179.389 536.387 189.612 526.782 199.706C531.841 199.706 535.514 199.218 539.006 199.809C548.637 201.402 556.47 197.035 564.251 192.155C567.076 190.382 569.824 188.43 572.803 186.966C590.909 178.028 609.477 170.065 629.174 166.392C639.858 164.388 651.389 163.387 661.918 165.442C675.376 168.036 686.29 177.257 695.356 188.251C696.923 190.151 698.284 192.257 699.748 194.261V194.235ZM542.114 333.966C543.192 334.12 544.014 334.531 544.553 334.274C555.622 329.394 567.307 329.291 579.044 329.188C591.294 329.085 603.519 328.366 615.769 328.084C625.99 327.827 636.057 327.441 646.047 331.5C665.514 339.385 685.52 345.37 706.579 346.552C715.722 347.065 724.864 347.81 733.904 349.197C747.798 351.329 761.204 354.951 771.194 366.587C771.887 367.408 773.582 367.28 774.789 367.588C774.507 366.098 774.635 364.352 773.89 363.196C764.851 349.017 750.674 343.778 735.984 340.079C717.006 335.301 697.873 331.294 678.791 327.005C668.108 324.59 657.373 322.279 646.689 319.864C642.837 318.991 638.291 319.094 635.287 316.91C622.189 307.355 607.705 304.812 592.527 307.278C583.59 308.717 575.063 312.903 566.126 314.624C555.828 316.602 550.486 325.387 542.987 331.217C542.448 331.628 542.448 332.861 542.139 333.966H542.114ZM568.412 611.731C567.949 612.065 567.513 612.399 567.051 612.733C567.693 614.274 568.052 616.072 569.054 617.279C572.392 621.338 575.68 625.55 579.506 629.095C589.522 638.316 599.23 648.102 610.144 656.039C624.244 666.288 639.421 674.892 654.086 684.293C658.76 687.299 663.228 690.689 667.851 693.771C678.483 700.886 688.473 709.671 699.979 714.525C715.49 721.101 729.333 729.783 742.585 740.211C749.724 745.836 757.454 750.768 765.338 755.135C772.452 759.064 779.361 755.417 782.211 748.122C775.483 745.939 768.728 743.73 761.948 741.547C761.075 741.264 760.151 741.239 759.226 741.161C749.313 740.237 740.633 732.891 738.27 722.796C736.96 717.145 733.801 713.703 728.896 711.7C720.909 708.438 712.768 705.535 704.961 701.837C700.21 699.576 695.895 696.211 691.478 693.181C684.801 688.608 678.047 684.165 671.626 679.233C667.235 675.843 663.768 670.962 659.145 668.06C645.662 659.609 631.64 652.109 618.157 643.658C602.209 633.641 586.62 622.981 570.877 612.63C570.158 612.168 569.259 611.988 568.437 611.68L568.412 611.731ZM454.051 339.873C454.334 340.284 454.616 340.695 454.925 341.106C457.852 338.255 460.754 335.378 463.708 332.579C472.106 324.59 479.682 315.241 489.158 309.025C500.253 301.756 510.859 294.307 520.233 284.623C526.037 278.639 532.38 272.294 539.674 269.006C563.019 258.475 587.39 252.105 613.201 252.696C636.186 253.21 656.705 260.402 674.862 275.043C695.33 291.584 718.469 299.881 744.536 300.703C743.715 299.778 743.124 298.828 742.302 298.185C730.129 288.784 716.338 284.341 701.391 283.057C688.371 281.952 677.661 277.277 671.395 263.715C666.875 253.878 659.196 246.737 648.359 245.042C640.063 243.732 631.64 242.447 623.268 242.37C609.733 242.216 596.174 243.834 582.691 243.244C565.664 242.524 549.972 246.198 535.385 255.239C532.483 257.037 529.812 259.503 527.578 262.174C522.262 268.493 518.435 277.097 511.963 281.233C488.336 296.362 473.03 320.044 454.026 339.848L454.051 339.873ZM771.579 348.992C766.314 341.466 761.461 335.815 753.833 333.889C745.512 331.782 736.986 330.524 728.665 328.366C716.646 325.232 704.524 322.227 692.813 318.066C675.992 312.081 658.272 308.074 643.813 296.105C642.683 295.18 641.245 294.589 639.884 294.05C620.956 286.781 601.233 288.887 581.715 288.733C581.201 288.733 580.636 288.964 580.148 289.221C573.291 292.766 566.126 295.797 559.706 300.06C549.099 307.098 537.157 312.184 528.785 322.69C527.732 324.025 525.6 324.436 523.931 325.207C520.259 326.902 516.329 328.135 512.965 330.344C499.431 339.18 486.076 348.273 472.671 357.314C471.438 358.136 470.411 359.317 469.306 360.345L470.205 361.963C475.983 359.446 482.096 357.494 487.489 354.283C496.375 348.992 504.541 342.339 513.504 337.228C521.312 332.784 530.531 330.781 537.825 325.669C550.024 317.09 562.89 310.848 576.887 306.585C590.138 302.552 603.416 300.78 616.924 304.453C626.118 306.944 635.107 310.283 644.275 312.826C654.342 315.6 664.512 317.886 674.631 320.404C691.119 324.488 707.58 328.649 724.068 332.681C739.426 336.406 755.811 336.971 768.42 348.992C768.626 349.172 769.114 348.992 771.528 348.992H771.579ZM772.786 378.402C766.391 368.256 759.56 359.728 748.414 357.674C737.294 355.619 725.943 354.411 714.643 353.898C695.459 353.05 676.968 349.839 659.171 341.723C647.434 336.354 634.979 333.067 621.804 333.889C610.119 334.608 598.382 334.659 586.671 334.967C581.535 335.096 576.399 334.736 571.288 335.199C558.653 336.329 546.12 338.075 535.026 345.319C532.817 346.757 530.814 348.529 528.708 350.148C529.016 350.687 529.299 351.226 529.607 351.766C530.608 351.766 531.636 351.869 532.637 351.766C544.066 350.507 555.468 349.223 566.871 347.887C572.675 347.219 578.505 346.603 584.283 345.653C598.1 343.367 611.968 341.415 625.733 345.242C636.494 348.247 647.331 351.304 657.732 355.439C677.841 363.427 698.72 366.458 719.908 368.718C736.575 370.516 753.576 371.056 769.216 378.71C769.884 379.044 770.886 378.607 772.786 378.402ZM758.276 323.075C758.456 322.536 758.661 321.97 758.841 321.431C752.96 317.27 746.745 314.059 739.451 312.724C728.871 310.771 718.264 308.768 707.863 305.943C699.054 303.554 690.656 299.65 681.873 297.107C673.347 294.641 666.901 290.043 661.867 282.209C659.376 278.305 654.959 275.325 650.85 273.116C635.543 264.845 618.876 263.921 602.106 264.589C583.076 265.333 564.945 270.522 547.25 277.611C537.337 281.592 530.506 289.529 523.957 297.929C520.824 301.936 517.151 306.405 512.785 308.254C495.553 315.523 482.481 328.084 470.59 342.416C470.128 342.981 470.051 343.906 469.794 344.677C472.927 343.546 475.136 341.62 477.55 340.027C501.331 324.462 524.984 308.691 548.996 293.536C560.579 286.216 571.365 277.252 586.158 276.584C611.249 275.479 635.698 277.354 657.964 290.634C671.01 298.417 684.801 303.862 699.131 307.869C714.104 312.056 729.307 315.446 744.382 319.248C749.031 320.429 753.653 321.791 758.276 323.049V323.075ZM774.301 764.921C769.627 764.921 765.03 765.948 761.075 764.715C750.957 761.53 741.121 757.369 731.182 753.542C726.919 751.898 722.399 750.665 718.521 748.302C709.686 742.934 701.237 736.923 692.557 731.298C682.13 724.543 671.626 717.967 661.174 711.263C642.144 699.037 623.165 686.733 604.161 674.481C587.416 663.693 573.625 649.489 561.452 633.436C557.78 628.607 553.825 623.983 549.998 619.283C549.33 619.642 548.688 620.002 548.02 620.362C548.611 622.416 548.817 624.702 549.818 626.526C562.068 648.641 579.968 665.543 597.792 682.264C606.138 690.098 616.565 695.569 626.298 701.657C641.065 710.878 656.089 719.611 670.907 728.73C678.124 733.173 685.546 737.437 692.146 742.805C699.696 748.944 706.887 755.289 716.338 758.191C721.192 759.681 725.789 762.326 730.257 764.921C736.472 768.568 742.199 773.243 748.594 776.428C758.276 781.257 771.605 775.169 774.301 764.921ZM329.341 561.952C327.518 558.69 325.438 555.736 324.154 552.448C319.659 540.89 311.159 533.184 301.066 527.996C290.613 522.602 279.647 517.773 268.399 514.845C259.025 512.379 248.906 512.225 239.147 512.533C232.624 512.738 225.998 515.127 219.732 517.465C216.111 518.826 213.158 522.037 209.896 524.425C211.54 525.966 212.464 526.403 213.209 526.172C221.633 523.629 228.541 526.763 235.115 532.054C244.464 539.58 255.301 543.638 266.807 545.565C274.383 546.823 282.061 547.388 289.689 548.441C300.835 549.957 310.979 554.401 319.557 561.875C323.486 565.317 326.028 564.855 329.341 561.978V561.952ZM853.504 1024.76C853.067 1023.86 852.939 1023.14 852.579 1022.96C850.447 1021.86 848.239 1020.9 846.082 1019.85C830.518 1012.27 814.416 1006.75 797.107 1006.5C780.799 1006.26 764.465 1006.06 748.157 1006.65C740.042 1006.93 731.798 1008.19 723.94 1010.4C699.285 1017.31 677.25 1030.31 655.755 1044.36C654.625 1045.1 653.803 1046.41 652.853 1047.46L653.675 1049.34C718.392 1024.63 784.523 1012.99 853.504 1024.78V1024.76ZM829.311 458.747C829.594 458.413 829.902 458.053 830.185 457.719C829.311 455.228 828.233 452.788 827.616 450.245C826.024 443.746 822.865 438.481 816.804 435.861C812.464 433.986 807.97 432.291 803.399 431.135C793.768 428.695 785.139 424.893 781.158 414.465C778.616 407.786 774.019 403.214 768.343 400.004C762.591 396.742 756.607 393.223 750.315 391.81C733.519 388.085 716.543 385.106 699.568 382.435C675.145 378.582 651.363 372.212 627.582 365.328C616.488 362.117 604.263 363.222 592.552 362.374C592.398 363.35 592.27 364.352 592.116 365.328C593.888 365.842 595.634 366.741 597.432 366.792C610.735 367.049 623.576 369.258 636.031 374.472C643.787 377.734 651.749 380.637 659.813 382.82C671.832 386.082 683.928 389.704 696.203 391.091C721.089 393.865 745.101 399.284 766.546 413.206C772.529 417.085 776.87 423.737 782.083 429.029C786.885 433.909 791.174 439.791 796.798 443.181C804.965 448.113 814.185 451.17 822.891 455.125C825.1 456.127 827.18 457.514 829.311 458.721V458.747ZM363.703 560.462L364.114 562.646C365.835 562.748 367.581 562.954 369.302 562.954C385.815 562.877 402.175 563.879 418.226 568.399C432.376 572.381 445.114 579.341 457.185 587.92C476.317 601.508 490.391 619.668 500.946 641.039C506.339 651.955 511.45 663.051 516.817 673.968C517.793 675.945 519.463 677.512 520.824 679.285C521.491 678.848 522.159 678.411 522.827 678C521.158 674.43 519.308 670.937 517.87 667.264C512.22 653.059 506.801 638.778 501.126 624.6C492.728 603.589 482.173 584.196 464.607 569.915C455.387 562.415 444.626 557.74 433.48 556.532C417.686 554.837 401.609 555.043 385.687 555.582C378.316 555.839 370.997 558.793 363.652 560.514L363.703 560.462ZM636.982 139.396C637.084 138.908 637.187 138.42 637.29 137.932C636.442 137.341 635.672 136.442 634.747 136.211C620.135 132.41 605.239 132.872 590.524 134.362C573.266 136.083 557.06 142.504 541.857 151.16C531.559 157.042 521.337 163.798 515.302 174.74C507.598 188.713 496.58 197.42 482.198 202.198C453.897 211.599 436.357 234.048 420.948 258.861C419.689 260.89 419.587 263.741 418.945 266.207C419.535 266.412 420.126 266.618 420.717 266.823C421.898 264.974 423.002 263.047 424.286 261.249C430.758 252.208 436.947 242.91 443.856 234.279C453.923 221.719 466.558 212.832 481.197 206.796C493.242 201.813 505.184 196.47 516.715 190.331C523.161 186.915 528.682 181.598 534.615 177.129C550.923 164.876 568.566 155.27 587.416 148.104C602.106 142.53 616.95 137.906 632.873 139.499C634.208 139.627 635.569 139.396 636.93 139.345L636.982 139.396ZM832.907 442.873C833.729 440.15 834.319 439.251 834.217 438.455C832.265 425.407 823.816 416.34 811.18 415.441C797.518 414.465 787.502 408.788 780.131 396.279C776.972 390.911 771.271 386.493 765.826 383.462C754.501 377.169 741.737 376.27 729.153 375.114C719.137 374.189 709.019 373.779 699.106 372.032C688.859 370.234 678.791 367.306 668.724 364.557C659.068 361.912 649.54 358.675 639.858 356.055C631.255 353.718 622.549 350.25 613.868 350.173C596.353 350.045 578.813 351.637 561.298 352.999C546.505 354.155 531.841 356.518 518.076 362.785C516.715 363.402 515.61 364.711 513.941 366.073C515.43 366.818 515.97 367.357 516.381 367.254C519.231 366.587 522.082 365.893 524.881 364.968C542.576 359.215 561.195 360.294 579.147 357.057C594.838 354.232 610.093 356.8 625.553 357.519C627.171 357.597 628.815 358.085 630.356 358.701C655.986 368.975 682.977 373.265 709.738 378.505C725.506 381.587 741.814 381.818 756.992 388.137C768.754 393.043 779.592 399.336 785.473 411.948C788.991 419.525 795.283 423.378 802.217 425.921C812.927 429.85 825.177 430.03 832.932 442.873H832.907ZM497.684 453.019C497.556 453.533 497.453 454.021 497.325 454.534C498.969 455.279 500.561 456.076 502.23 456.743C511.424 460.417 520.875 463.55 529.812 467.84C545.735 475.468 560.502 484.946 571.827 499.51C574.678 503.158 578.376 506.343 582.228 508.808C611.48 527.687 642.94 540.222 676.891 546.361C698.874 550.342 718.187 560.437 732.954 578.751C733.673 579.65 735.291 579.752 736.498 580.215C736.729 578.828 737.628 576.876 737.063 576.131C731.978 569.221 727.509 561.336 721.166 555.967C707.58 544.512 690.451 540.864 674.04 536.729C650.516 530.821 627.865 522.37 605.419 513.175C596.713 509.605 588.084 505.752 580.842 498.585C568.386 486.282 557.009 472.617 541.343 464.115C527.475 456.615 512.76 454.175 497.659 453.019H497.684ZM540.111 588.897C539.571 589.051 539.058 589.205 538.518 589.359C539.34 592.107 539.571 595.267 541.061 597.501C547.327 606.928 554.03 616.021 560.476 625.319C576.938 649.052 597.971 667.032 622.317 681.314C640.654 692.05 658.426 703.866 676.3 715.45C684.698 720.895 693.379 726.135 700.723 732.942C708.351 740.006 717.391 742.24 726.482 744.912C727.664 745.271 729.949 743.858 730.745 742.6C731.285 741.727 730.591 738.978 729.641 738.259C724.453 734.38 719.24 730.373 713.564 727.394C702.983 721.82 691.581 717.787 681.462 711.469C670.676 704.739 661.277 695.569 650.696 688.403C636.596 678.848 621.496 670.86 607.653 660.894C596.841 653.136 586.954 643.813 577.323 634.437C563.532 621.004 548.919 608.186 541.035 589.436C540.932 589.179 540.419 589.102 540.085 588.948L540.111 588.897ZM455.798 146.28C449.994 144.174 446.938 147.333 444.01 150.082C435.021 158.558 426.341 167.368 417.275 175.716C407.568 184.655 395.677 186.812 383.761 183.73C370.971 180.416 358.439 179.209 345.264 179.749C327.338 180.468 311.159 185.682 296.032 195.263C294.389 196.29 293.361 198.371 292.026 199.963L293.336 201.222C294.055 200.811 294.8 200.426 295.519 200.015C311.749 190.357 329.367 186.786 347.37 190.793C362.65 194.21 377.34 200.528 392.364 205.254C394.855 206.025 398.322 206.102 400.48 204.843C410.958 198.679 417.917 188.687 425.057 178.875C429.448 172.813 434.199 166.983 439.31 161.563C444.241 156.323 449.84 151.751 455.798 146.28ZM766.494 678.874C766.366 676.305 766.648 674.995 766.186 674.224C762.745 668.548 759.534 662.666 755.502 657.477C750.058 650.44 743.278 645.277 735.265 641.193C727.176 637.057 720.447 630.045 712.794 624.805C699.337 615.61 684.39 609.548 669.084 605.156C654.24 600.892 640.654 594.753 628.019 585.557C613.303 574.846 598.1 564.88 583.179 554.452C579.789 552.089 576.707 549.238 573.471 546.618C572.546 548.596 572.367 550.137 573.034 550.83C579.763 558.151 586.055 566.113 593.631 572.329C603.981 580.806 615.306 587.997 626.349 595.549C629.534 597.732 633.001 599.684 636.596 600.994C645.765 604.334 655.19 606.928 664.307 610.447C674.913 614.557 686.008 618.075 695.613 624.112C713.179 635.156 729.898 647.768 746.796 659.969C750.803 662.871 754.218 666.724 757.839 670.192C760.459 672.709 763.001 675.329 766.52 678.848L766.494 678.874ZM596.019 523.758C595.763 524.374 595.48 524.99 595.223 525.607C596.456 526.583 597.612 527.739 598.947 528.535C612.404 536.626 625.528 545.462 639.473 552.526C656.885 561.387 674.913 568.939 692.813 576.747C702.778 581.088 712.948 584.864 723.066 588.845C724.813 589.539 726.636 589.924 728.434 590.438C728.28 588.1 728.973 585.018 727.818 583.58C722.707 577.209 717.75 570.326 711.458 565.445C699.876 556.507 685.828 553.681 671.96 550.856C663.177 549.084 654.009 548.467 645.713 545.308C630.638 539.554 616.077 532.234 601.31 525.607C599.615 524.836 597.817 524.348 596.071 523.706L596.019 523.758ZM303.223 604.513L303.814 606.337C305.586 606.055 307.384 605.926 309.104 605.438C331.293 598.94 353.431 593.289 376.981 596.268C393.879 598.4 410.47 600.583 426.675 606.645C438.232 610.961 447.888 617.87 456.851 626.012C464.812 633.204 471.797 641.578 479.219 649.412C483.38 644.968 484.048 642.862 481.454 640.345C469.897 629.172 458.854 617.254 446.27 607.544C436.973 600.378 425.827 595.626 415.067 590.951C407.927 587.843 400.069 585.609 392.39 585.018C362.727 582.706 334.709 590.515 307.461 602.073C305.971 602.715 304.636 603.717 303.223 604.539V604.513ZM502.59 210.263C493.704 208.799 487.36 211.445 481.094 214.399C461.011 223.877 445.679 239.057 435.278 259.195C427.548 274.195 421.153 289.966 414.245 305.429C413.629 306.816 413.551 308.485 413.115 310.463C427.959 293.151 442.88 276.892 456.517 259.554C470.231 242.113 483.251 224.159 502.564 210.263H502.59ZM537.696 455.485C538.775 456.846 539.006 457.437 539.417 457.642C554.03 464.603 565.304 476.188 577.143 487.13C582.999 492.549 589.419 497.738 596.379 501.282C607.371 506.856 618.902 511.326 630.459 515.538C646.15 521.24 661.919 526.865 677.918 531.412C698.695 537.32 719.06 543.715 735.265 559.692C735.882 560.283 737.114 560.18 738.065 560.411C738.065 559.384 738.475 557.971 738.013 557.38C734.341 552.859 731.028 547.799 726.636 544.229C708.145 529.152 686.034 522.679 663.896 516.54C649.232 512.481 634.234 509.63 619.801 504.827C609.811 501.514 599.82 496.916 591.114 490.88C580.2 483.328 570.774 473.465 560.348 465.066C554.056 459.98 547.404 454.971 537.696 455.485ZM528.348 571.148C528.965 569.786 529.581 569.093 529.478 568.502C527.45 554.734 524.83 541.352 515.739 530.205C505.158 517.208 491.829 508.885 476.857 503.106C463.913 498.097 450.251 497.07 436.845 498.842C424.98 500.435 413.372 504.416 401.738 507.755C399.118 508.5 396.961 510.94 394.573 512.61C394.907 513.278 395.266 513.946 395.6 514.639C398.014 513.791 400.402 512.533 402.894 512.148C425.391 508.68 447.759 505.598 470.025 514.408C491.392 522.859 509.421 535.29 520.772 556.815C523.186 561.387 525.6 565.959 528.323 571.148H528.348ZM317.939 175.613C328.853 174.406 338.15 172.146 347.319 172.659C359.466 173.301 371.536 175.947 383.607 178.028C394.778 179.954 405.385 178.85 414.245 170.99C420.665 165.313 426.444 158.789 432.196 152.316C434.713 149.491 436.434 145.869 438.514 142.607C438.232 142.145 437.975 141.657 437.692 141.194C435.792 141.682 433.686 141.836 431.991 142.761C427.933 144.97 423.978 147.436 420.126 150.004C404.871 160.253 388.152 165.056 370.149 165.031C359.338 165.031 348.526 164.697 337.739 164.311C331.088 164.08 325.849 167.651 320.507 170.964C319.454 171.606 319.069 173.456 317.913 175.587L317.939 175.613ZM441.056 76.4149L442.161 77.8019C445.551 76.5947 448.915 75.3104 452.331 74.1802C454.899 73.3326 458.34 73.5124 459.932 71.7657C464.452 66.8341 468.407 68.0156 473.544 70.5842C491.161 79.3173 508.419 79.5999 524.881 66.9368C526.576 65.6268 529.709 65.858 532.072 66.1919C537.465 66.9625 542.833 68.144 548.149 69.3513C554.672 70.8411 561.272 72.2024 567.641 74.2573C572.855 75.9525 577.734 78.8036 582.922 80.6273C584.514 81.1924 586.646 80.2677 588.418 79.6769C588.7 79.5742 588.777 77.1597 588.212 76.3635C583.076 69.1715 575.988 63.3151 568.001 62.4418C550.049 60.464 531.867 60.4897 513.787 59.9503C511.578 59.8732 509.216 61.2603 507.084 62.3391C500.535 65.6525 493.884 65.5241 487.001 63.7261C483.534 62.8271 479.784 61.6199 476.42 62.185C465.48 64.0086 454.385 65.6782 444.857 72.3822C443.394 73.4096 442.315 75.0535 441.031 76.4149H441.056ZM859.154 299.007C860.129 294.178 858.409 291.559 855.558 289.195C851.988 286.242 848.367 283.262 845.208 279.82C836.605 270.445 825.947 266.207 813.877 265.436C792.407 264.075 771.194 266.053 750.212 270.984C749.287 271.19 748.517 272.089 746.617 273.347C757.429 279.152 767.598 283.211 779.027 282.183C789.197 281.259 799.444 278.459 809.485 279.152C827.308 280.385 844.104 286.242 859.154 299.007ZM164.645 647.614C171.399 646.33 176.613 644.198 181.646 644.609C193.46 645.585 205.402 646.869 215.751 654.138C217.01 655.012 219.321 655.397 220.682 654.806C226.589 652.289 232.367 649.361 238.146 646.51C241.562 644.814 243 642.862 239.738 639.138C228.335 626.166 207.867 620.695 191.893 626.655C182.417 630.173 174.25 635.876 167.085 643.17C166.289 643.967 165.955 645.251 164.696 647.665L164.645 647.614ZM773.813 672.709L775.894 671.784C775.277 668.676 775.149 665.337 773.993 662.486C768.985 650.234 759.098 642.271 750.238 633.384C745.153 628.273 739.118 625.653 732.415 624.009C729.307 623.238 725.969 621.826 723.657 619.642C708.71 605.438 690.014 598.4 671.703 591.748C653.854 585.249 635.749 580.112 620.417 567.886C619.441 567.115 617.515 567.654 616.025 567.577C616.513 569.067 616.59 571.25 617.566 571.918C627.402 578.442 637.007 585.609 647.485 590.797C657.809 595.934 669.084 598.863 679.87 603.024C694.431 608.623 709.352 613.324 721.063 625.011C724.941 628.889 729.949 631.56 734.598 634.463C739.605 637.571 745.641 639.395 749.801 643.427C755.913 649.335 760.767 656.707 766.186 663.437C768.703 666.57 771.271 669.627 773.839 672.735L773.813 672.709ZM401.173 221.873C397.809 220.101 394.804 218.431 391.722 216.89C381.526 211.83 371.357 206.796 361.135 201.813C351.556 197.138 341.335 199.141 331.345 198.499C314.009 197.395 300.989 206.667 288.559 217.532C287.48 218.483 287.095 220.306 285.785 222.952C288.199 222.104 289.15 221.976 289.869 221.488C308.308 208.645 328.751 207.027 349.45 211.65C362.573 214.578 375.106 220.383 387.895 224.93C392.672 226.625 397.115 226.83 401.173 221.847V221.873ZM172.093 622.391C180.234 620.259 186.243 618.05 192.458 617.176C210.564 614.608 226.538 622.057 242.255 630.019C249.138 633.513 256.226 631.252 260.232 623.803C258.82 622.673 257.099 621.774 255.995 620.336C248.008 610.241 237.478 605.567 225.382 604.462C207.662 602.844 190.583 604.334 176.073 616.843C174.687 618.024 173.839 619.899 172.118 622.365L172.093 622.391ZM557.42 114.378C556.675 112.169 556.65 111.476 556.316 111.168C555.365 110.269 554.338 109.447 553.26 108.728C535 96.6552 514.814 93.1876 493.781 95.0113C483.406 95.9103 473.236 98.6587 464.786 105.953C460.857 109.344 460.883 111.322 465.403 114.019C470.385 116.973 475.085 117.949 480.889 115.38C500.176 106.801 520.284 106.262 540.65 110.32C545.915 111.373 551.102 112.837 557.42 114.404V114.378ZM427.137 134.978C418.713 132.307 411.805 134.85 404.871 136.879C393.109 140.347 381.475 144.405 369.61 147.307C357 150.364 344.16 152.265 331.447 154.885C327.698 155.655 323.897 156.888 321.611 161.409C322.947 161.769 323.614 162.179 324.256 162.102C335.274 161.049 346.266 159.174 357.283 159.072C370.637 158.943 383.786 159.123 396.91 155.27C408.749 151.777 418.405 145.612 427.111 134.978H427.137ZM258.743 432.779C258.845 433.652 258.948 434.525 259.051 435.424C261.516 435.424 263.982 435.501 266.447 435.424C288.122 434.628 308.745 438.789 327.646 450.348C337.508 456.384 346.214 463.73 352.84 473.773C354.176 475.802 357.463 477.343 359.928 477.472C375.645 478.165 391.363 478.319 407.08 478.833C411.805 478.987 416.608 479.347 421.256 480.246C424.928 480.939 425.545 479.039 426.135 475.879C418.123 475.289 410.547 474.441 402.945 474.235C392.698 473.953 382.297 473.182 372.178 474.415C360.288 475.879 354.201 470.46 348.782 460.057C339.563 442.385 323.255 434.551 305.226 431.366C295.21 429.594 284.784 430.056 274.537 430.21C269.246 430.287 263.982 431.88 258.717 432.779H258.743ZM317.81 574.718C317.759 574.179 317.682 573.639 317.631 573.1C313.958 569.478 310.568 565.445 306.51 562.389C302.915 559.692 298.729 557.123 294.466 556.25C288.302 554.966 281.83 555.325 275.513 554.76C271.532 554.401 267.474 554.067 263.648 552.988C254.685 550.471 245.825 547.594 236.939 544.743C235.629 544.332 234.242 543.561 233.318 542.534C227.257 535.933 218.731 533.878 210.281 537.345C207.636 538.424 205.145 539.991 202.602 541.327C202.808 541.84 202.988 542.38 203.193 542.893C204.015 542.893 204.888 543.073 205.684 542.868C216.368 540.119 226.795 541.994 234.525 549.572C246.698 561.464 260.848 564.623 276.411 563.647C289.406 562.825 300.835 566.267 311.184 574.615C312.597 575.745 315.576 574.744 317.836 574.718H317.81ZM483.945 37.1671C482.224 37.09 480.503 36.9359 478.783 36.9102C464.889 36.7561 452.382 42.2785 439.978 47.7753C427.753 53.195 427.342 53.5289 414.836 51.7566C414.476 51.7052 414.116 51.6538 413.757 51.6024C396.191 49.2137 381.886 57.8441 367.658 66.757C367.376 66.9368 367.479 67.8101 367.247 69.2485C369.482 68.6321 371.331 68.2211 373.103 67.6046C390.258 61.5942 407.516 56.791 425.853 61.1575C427.651 61.5942 429.834 60.952 431.657 60.2585C436.819 58.3321 441.776 54.8902 447.04 54.2738C461.011 52.6299 471.874 43.9738 483.919 37.1414L483.945 37.1671ZM330.754 147.359C358.208 146.306 383.35 139.859 408.698 128.737C386.226 120.286 343.749 130.432 330.754 147.359ZM504.747 142.787C502.384 143.763 500.381 144.122 498.969 145.278C488.67 153.549 478.141 161.537 468.407 170.502C459.111 179.055 451.56 189.663 439.747 195.211C435.073 197.42 431.22 201.736 427.342 205.511C425.827 207.001 425.314 209.621 423.747 213.012C434.122 208.928 502.59 149.491 504.773 142.812L504.747 142.787ZM259.564 610.627C260.052 609.984 260.515 609.317 261.003 608.675C258.82 606.671 256.919 604.128 254.454 602.715C240.791 594.933 226.153 592.852 210.615 592.852C199.058 592.852 189.068 595.703 179.617 601.945C178.308 602.818 177.434 604.411 176.356 605.669C176.664 606.234 176.972 606.825 177.28 607.39C205.376 592.338 232.727 595.934 259.59 610.652L259.564 610.627ZM580.045 116.973C580.277 118.154 580.533 119.361 580.765 120.543C605.316 119.747 629.868 118.95 654.445 118.128C654.548 117.307 654.651 116.485 654.753 115.688C651.44 114.995 648.128 113.813 644.815 113.711C635.312 113.428 625.784 113.762 616.282 113.556C609.708 113.402 603.108 112.041 596.61 112.58C591.012 113.043 585.567 115.457 580.045 116.998V116.973ZM745.615 256.754C751.085 259.066 807.61 259.914 810.435 257.91C798.673 250.076 753.679 249.023 745.615 256.754ZM869.606 325.9C869.092 325.9 868.604 325.926 868.091 325.952C867.705 327.621 866.961 329.291 866.986 330.935C867.243 345.011 865.291 358.444 857.946 370.619C856.02 373.83 857.767 380.328 860.694 381.381C865.112 382.974 866.139 378.762 867.782 375.962C868.425 374.857 868.861 373.445 868.938 372.16C869.683 358.213 870.376 344.266 870.941 330.293C870.993 328.854 870.068 327.364 869.58 325.875L869.606 325.9ZM849.369 833.964C860.746 827.876 870.325 822.354 880.238 817.602C885.631 815.008 891.641 813.801 897.265 811.643C898.806 811.052 899.962 809.331 901.297 808.124C899.833 807.482 898.421 806.48 896.905 806.301C894.748 806.069 892.488 806.121 890.357 806.583C876.129 809.665 864.11 817.654 852.425 826.207C850.884 827.337 850.679 830.445 849.369 833.964ZM597.971 104.335L598.074 105.851C608.398 106.724 618.722 107.854 629.072 108.394C637.649 108.83 646.278 108.06 654.83 108.702C661.944 109.241 668.981 111.065 677.713 112.632C675.838 110.68 675.016 109.113 673.912 108.805C665.488 106.544 657.065 103.102 648.538 102.743C632.487 102.075 616.359 103.231 600.257 103.667C599.486 103.667 598.716 104.104 597.971 104.335ZM791.071 397.615C800.111 409.687 813.44 410.432 825.87 414.054C825.228 402.059 806.737 393.402 791.071 397.615ZM752.292 605.798C752.344 611.474 757.146 617.896 762.616 619.719C769.165 621.903 775.2 624.677 779.515 630.687C780.311 631.792 782.057 632.1 783.367 632.768C783.649 632.254 783.932 631.74 784.214 631.252C777.614 617.613 767.907 608.186 752.292 605.798ZM534.615 338.229C516.278 334.865 505.774 347.862 493.242 355.799C492.574 356.21 492.651 357.905 492.291 359.292C507.366 354.18 521.337 348.35 534.615 338.204V338.229ZM859.256 390.14C859.718 389.524 860.155 388.907 860.617 388.291C857.613 385.183 855.07 381.073 851.5 379.147C844.078 375.14 835.809 372.802 830.108 365.688C829.645 365.097 827.899 365.662 826.743 365.688C826.974 366.869 826.872 368.333 827.488 369.181C829.722 372.212 832.522 374.806 834.576 377.965C840.663 387.289 850.576 387.212 859.282 390.14H859.256ZM430.116 78.8293C430.27 78.1872 430.399 77.545 430.553 76.9029C428.601 76.2351 426.675 75.0792 424.697 74.9765C410.983 74.2573 397.269 74.0261 384.351 80.2163C382.733 80.9869 381.501 82.6308 380.088 83.8637C381.809 84.249 383.658 85.2508 385.276 84.9168C394.907 83.0418 404.409 80.4989 414.065 78.9577C419.304 78.1101 424.749 78.8036 430.116 78.8036V78.8293ZM766.623 596.114C774.558 606.209 782.494 616.38 790.558 626.423C790.943 626.911 792.381 626.475 793.46 626.475C787.425 604.847 778.719 595.292 766.623 596.114ZM789.762 357.776C791.431 360.294 792.253 361.629 793.177 362.888C797.697 369.181 804.58 369.977 811.18 371.364C813.646 371.878 816.214 371.878 818.756 372.109C817.241 369.746 816.034 367.049 814.134 365.097C807.713 358.521 799.752 357.237 789.787 357.776H789.762ZM386.894 430.467C386.791 430.981 386.688 431.469 386.56 431.982C388.486 432.625 390.438 433.78 392.364 433.78C409.391 433.857 426.444 433.78 443.471 433.575C444.857 433.575 446.244 432.522 447.657 431.982C447.528 431.469 447.4 430.981 447.271 430.467H386.868H386.894ZM268.912 578.622C266.036 578.622 263.75 578.237 261.67 578.751C259.975 579.162 258.537 580.677 256.996 581.704C258.511 582.629 259.924 584.016 261.542 584.35C269.349 585.994 277.208 587.407 285.092 588.768C286.145 588.948 287.301 588.357 288.405 588.126C288.071 587.15 288.02 585.891 287.403 585.198C282.139 579.521 275.564 577.852 268.938 578.622H268.912ZM823.739 390.988C823.379 382.281 798.879 370.157 786.012 372.263C797.851 381.895 812.772 381.407 823.739 390.988ZM365.424 449.628C368.146 453.764 412.678 454.997 418.816 451.118C401.353 449.218 383.812 449.731 365.424 449.628ZM878.851 796.437C865.702 796.155 844.053 809.588 843.616 817.268C854.967 810.564 866.524 803.732 878.851 796.437ZM448.607 117.255C448.607 116.587 448.607 115.919 448.607 115.252H411.523C413.86 118.36 441.313 120.209 448.581 117.255H448.607ZM417.763 377.297C417.481 376.45 417.173 375.602 416.89 374.755C409.288 374.755 401.661 374.678 394.059 374.857C393.212 374.857 392.39 376.398 391.568 377.22C392.467 377.991 393.314 379.327 394.265 379.404C400.094 379.892 405.95 380.405 411.779 380.277C413.783 380.226 415.76 378.351 417.763 377.297ZM505.004 115.791C496.529 112.709 479.784 118.411 477.062 125.192C486.975 121.853 495.99 118.822 505.004 115.791ZM721.038 659.25C721.551 658.556 722.065 657.837 722.579 657.143C712.126 649.72 701.648 642.271 691.196 634.848C690.81 635.413 690.451 636.004 690.066 636.569C700.39 644.121 710.714 651.698 721.038 659.25ZM925.104 724.646C925.104 724.44 925.104 724.26 925.104 724.055H847.828C847.828 724.26 847.828 724.44 847.828 724.646H925.104ZM508.984 121.493C512.015 125.783 532.278 127.35 537.568 122.983C528.22 122.495 518.872 122.007 508.984 121.493ZM211.463 565.086C211.257 565.831 211.052 566.601 210.872 567.346C217.241 569.478 223.61 571.584 229.979 573.716L230.544 571.687C225.562 564.932 218.525 564.932 211.463 565.086ZM544.964 120.337C545.17 119.105 545.401 117.897 545.606 116.664C539.494 115.56 533.408 114.455 527.295 113.351C527.116 114.43 526.91 115.509 526.73 116.587C532.817 117.82 538.878 119.079 544.964 120.312V120.337ZM864.007 881.303C864.418 881.996 864.803 882.664 865.214 883.358C872.354 878.914 879.519 874.47 886.659 870.027C886.325 869.436 885.991 868.845 885.657 868.254C878.44 872.621 871.224 876.962 864.007 881.328V881.303ZM383.786 392.324C383.786 392.324 383.684 392.529 383.632 392.658H426.315C426.315 392.658 426.315 392.452 426.315 392.324H383.786Z" fill="#F9A9D4"/>
<path d="M0.539306 49.29C6.29199 49.29 11.2229 49.29 16.1537 49.29C101.982 49.624 187.81 49.8808 273.638 50.2918C295.262 50.3945 316.886 51.0367 338.535 51.2678C340.384 51.2678 342.644 50.6771 344.057 49.5212C357.54 38.3479 373.36 33.031 389.821 29.8459C396.91 28.4846 404.383 29.512 411.574 28.6387C415.4 28.1764 419.047 26.0188 422.72 24.5033C441.878 16.6692 461.499 11.8659 482.173 15.4363C485.974 16.1041 489.518 18.4672 493.293 19.0066C496.246 19.4432 500.098 19.2634 502.333 17.5682C509.01 12.5338 515.636 11.3779 523.494 13.9979C528.656 15.7188 534.255 16.3096 539.7 16.7719C554.672 18.0305 569.721 18.724 584.668 20.1624C589.111 20.5991 593.323 23.0649 597.766 23.9896C601.695 24.8115 606.061 25.8903 609.759 24.8886C631.383 18.9809 653.212 19.0066 675.17 21.5751C677.584 21.8577 680.409 22.9879 682.104 24.7088C686.521 29.2295 691.632 29.2038 697.231 29.2038C814.082 29.1011 930.934 29.1781 1047.78 28.9983C1053.28 28.9983 1054.15 31.2073 1054 36.1133C1053.85 40.6083 1054.28 43.896 1047.96 43.896C929.649 43.6906 811.334 43.7676 693.019 43.6135C689.783 43.6135 685.674 42.5347 683.491 40.3C675.966 32.6457 666.13 29.3322 656.91 27.8681C640.911 25.3509 624.346 24.7602 609.528 34.7776C607.704 36.0105 603.672 36.1646 602.106 34.8547C590.806 25.4794 577.708 24.1951 564.148 24.3235C548.38 24.4776 532.894 21.9347 517.562 18.2874C512.477 17.0801 508.702 18.6983 505.338 22.6026C500.509 28.1764 494.731 28.2791 488.593 24.4776C484.998 22.243 480.632 20.7532 476.471 20.3422C462.655 19.0066 449.043 20.6248 436.254 26.5325C430.476 29.2038 425.185 33.108 419.587 36.2417C418.046 37.0893 415.632 38.0397 414.399 37.3719C402.534 30.9504 390.9 33.8272 379.318 38.014C375.029 39.5552 370.329 40.711 366.811 43.4337C361.341 47.6718 356.41 52.8604 351.787 58.1516C348.448 61.9531 345.675 64.573 339.973 64.4189C314.497 63.6484 288.995 63.5199 263.494 63.3658C183.547 62.8521 103.625 62.3898 23.6785 61.9274C18.0028 61.9017 12.2758 61.6706 6.62585 62.1586C1.69498 62.5696 -0.128416 60.7459 0.590669 55.6601C0.821804 53.9905 0.616351 52.2439 0.616351 49.2387L0.539306 49.29Z" fill="#F9A9D4"/>
<path d="M169.448 1103.07C176.33 1100.07 183.136 1096.83 190.121 1094.14C204.195 1088.72 218.114 1082.53 232.547 1078.57C252.348 1073.18 272.508 1069.14 292.668 1065.32C316.552 1060.77 340.795 1059.54 364.936 1060.9C390.849 1062.36 416.839 1064.47 442.52 1068.27C472.773 1072.74 502.821 1078.88 532.766 1085.22C552.849 1089.49 572.598 1095.37 592.475 1100.61C594.53 1101.15 596.456 1102.25 598.331 1104.31C596.867 1104.49 595.377 1104.8 593.914 1104.8C569.156 1104.82 544.374 1105.31 519.617 1104.56C511.039 1104.31 502.615 1100.53 494.012 1099.12C473.441 1095.75 452.844 1092.65 432.196 1089.77C402.996 1085.69 373.565 1085.38 344.391 1088.59C318.658 1091.41 293.207 1097.3 267.628 1101.71C260.643 1102.92 253.632 1104.56 246.621 1104.69C222.968 1105.05 199.29 1104.85 175.637 1104.85C173.685 1104.85 171.759 1104.85 169.807 1104.85C169.679 1104.26 169.576 1103.64 169.448 1103.05V1103.07Z" fill="#F9A9D4"/>
<path d="M0.821755 31.1816C3.18446 31.0532 4.98218 30.8734 6.77989 30.8734C97.0252 30.8734 187.27 30.8477 277.49 30.9762C295.621 31.0018 313.752 31.7724 331.909 32.0036C334.529 32.0293 337.277 31.233 339.768 30.257C353.79 24.7602 367.504 18.236 381.834 13.8181C388.281 11.8146 395.857 13.9465 402.945 13.9979C405.564 13.9979 408.312 13.8951 410.778 13.0732C424.877 8.37271 438.694 1.97697 453.897 3.38968C463.528 4.28868 473.749 0.744052 482.738 7.1398C490.288 5.21337 499.123 9.16897 505.466 1.46325C506.313 0.435823 508.368 -0.20632 509.703 -0.000834301C520.438 1.566 531.122 3.74928 541.882 5.05925C559.115 7.16548 576.886 6.75451 593.477 11.2752C605.83 14.6143 616.282 12.8677 627.839 10.0937C646.715 5.54728 665.539 6.90863 684.005 13.8951C688.961 15.7702 694.817 15.4877 700.261 15.4877C718.033 15.4877 735.83 14.9739 753.602 14.9739C851.552 14.9483 949.501 14.9996 1047.45 15.0253C1048.74 15.0253 1050.28 14.6143 1051.23 15.2308C1052.33 15.9243 1053.64 17.5168 1053.59 18.6984C1053.56 19.8799 1052.23 21.4211 1051.07 22.0889C1050.1 22.6797 1048.56 22.2687 1047.27 22.2687C928.031 22.2944 808.817 22.3457 689.578 22.2687C687.163 22.2687 684.647 21.2669 682.361 20.2909C664.076 12.5852 645.328 9.73406 625.99 14.8969C621.11 16.2069 616.539 18.7754 611.659 20.0597C609.168 20.7019 605.984 20.5477 603.647 19.4176C588.058 11.9687 571.416 11.455 554.826 10.2991C541.163 9.34877 527.526 8.01311 513.864 6.75451C509.087 6.31785 504.284 5.36748 500.612 9.96523C500.278 10.3762 499.662 10.7101 499.148 10.7101C492.291 10.7101 484.998 12.1485 478.654 10.2221C469.871 7.55077 461.345 7.83331 452.613 8.44977C438.437 9.45151 425.262 13.3301 413.885 22.8595C412.447 24.0667 409.314 24.3236 407.516 23.5787C394.316 18.159 381.578 18.0819 368.043 23.5273C357.026 27.9709 348.037 34.3924 340.436 43.5622C339.331 44.8721 337.046 45.7711 335.299 45.7454C291.101 45.2831 246.903 44.5896 202.705 44.1272C154.526 43.6392 106.373 43.2282 58.1945 43.0741C41.5271 43.0228 24.8598 43.9218 8.1667 44.3584C0.333804 44.5639 0.333804 44.5125 0.43653 36.3702C0.43653 34.8547 0.59062 33.3136 0.719028 31.1046L0.821755 31.1816Z" fill="#F9A9D4"/>
<path d="M1053.08 1104.56H710.534L710.2 1103.33C714.155 1101.97 718.007 1100.14 722.065 1099.3C744.819 1094.44 767.521 1089.36 790.429 1085.35C802.448 1083.24 814.801 1082.96 827.026 1082.27C839.07 1081.6 851.166 1081.03 863.211 1081.27C870.094 1081.39 876.925 1083.27 883.782 1084.27C886.119 1084.6 888.508 1084.89 890.87 1084.86C942.747 1084.63 994.624 1084.35 1046.5 1084.09C1053.85 1084.07 1053.87 1084.09 1053.85 1092C1053.85 1095.65 1053.79 1099.32 1053.72 1102.97C1053.72 1103.33 1053.46 1103.66 1053.1 1104.59L1053.08 1104.56Z" fill="#F9A9D4"/>
<path d="M925.104 724.645H847.828C847.828 724.44 847.828 724.26 847.828 724.055H925.104C925.104 724.26 925.104 724.44 925.104 724.645Z" fill="#F9A9D4"/>
<path d="M864.007 881.328C871.224 876.961 878.44 872.62 885.657 868.254C885.991 868.845 886.325 869.435 886.659 870.026C879.519 874.47 872.354 878.913 865.214 883.357C864.803 882.664 864.418 881.996 864.007 881.302V881.328Z" fill="#F9A9D4"/>
<path d="M383.786 392.35H426.315C426.315 392.35 426.315 392.555 426.315 392.684H383.632C383.632 392.684 383.735 392.478 383.786 392.35Z" fill="#F9A9D4"/>
</g>
<defs>
<clipPath id="clip0_151_2340">
<rect width="1054" height="1105" fill="white"/>
</clipPath>
</defs>
</svg>
